<svg xmlns="http://www.w3.org/2000/svg" viewBox="0 0 1238.09 1010.57"><defs><style>.cls-1{fill:#0b2e4e;}.cls-2{fill:#ec5c5d;}.cls-3{fill:#fcb424;}.cls-4{fill:#f38daf;}.cls-5{fill:#fff;}.cls-6{fill:#069782;}.cls-7{fill:#5e5f5f;}.cls-8{fill:#f38db1;}.cls-9{fill:#fde9e9;}.cls-10{fill:#e0323b;}</style></defs><title>img-programacion_1</title><g id="Layer_2" data-name="Layer 2"><g id="Layer_1-2" data-name="Layer 1"><rect class="cls-1" x="389.91" y="11.97" width="53.96" height="3.21"/><path class="cls-2" d="M1238.09,32.05V42.23H210.66V32.05A32.05,32.05,0,0,1,242.71,0H1206a32.05,32.05,0,0,1,32,32.05"/><rect class="cls-3" x="210.66" y="42.23" width="219.46" height="657.63"/><rect class="cls-4" x="430.12" y="42.23" width="807.97" height="657.63"/><path class="cls-5" d="M252.8,20.48a10.19,10.19,0,1,1-10.19-10.2,10.19,10.19,0,0,1,10.19,10.2"/><path class="cls-5" d="M285.6,20.48a10.2,10.2,0,1,1-10.2-10.2,10.2,10.2,0,0,1,10.2,10.2"/><path class="cls-5" d="M318.39,20.48a10.19,10.19,0,1,1-10.19-10.2,10.19,10.19,0,0,1,10.19,10.2"/><rect class="cls-6" x="232.42" y="70.39" width="174.66" height="14.75"/><path class="cls-6" d="M408.68,86.74H230.82V68.79H408.68ZM234,83.53H405.48V72H234Z"/><path class="cls-7" d="M344.33,120.19H230.81V107.67H344.33ZM234,117h107.1v-6.11H234Z"/><path class="cls-7" d="M344.33,145.73H230.81V133.21H344.33ZM234,142.53h107.1v-6.11H234Z"/><path class="cls-7" d="M344.33,171.28H230.81V158.76H344.33ZM234,168.07h107.1V162H234Z"/><path class="cls-7" d="M344.33,196.82H230.81V184.3H344.33ZM234,193.62h107.1v-6.11H234Z"/><rect class="cls-6" x="232.42" y="236.99" width="174.66" height="14.75"/><path class="cls-6" d="M408.68,253.35H230.82v-18H408.68ZM234,250.14H405.48V238.6H234Z"/><path class="cls-7" d="M344.33,286.79H230.81V274.27H344.33ZM234,283.59h107.1v-6.11H234Z"/><path class="cls-7" d="M344.33,312.34H230.81V299.82H344.33ZM234,309.13h107.1V303H234Z"/><path class="cls-7" d="M344.33,337.88H230.81V325.36H344.33ZM234,334.68h107.1v-6.11H234Z"/><path class="cls-7" d="M344.33,363.43H230.81V350.91H344.33ZM234,360.22h107.1v-6.11H234Z"/><rect class="cls-6" x="232.42" y="403.6" width="174.66" height="14.75"/><path class="cls-6" d="M408.68,420H230.82V402H408.68ZM234,416.75H405.48V405.2H234Z"/><path class="cls-7" d="M344.33,453.4H230.81V440.88H344.33ZM234,450.19h107.1v-6.1H234Z"/><path class="cls-7" d="M344.33,478.94H230.81V466.43H344.33ZM234,475.74h107.1v-6.11H234Z"/><path class="cls-7" d="M344.33,504.49H230.81V492H344.33ZM234,501.28h107.1v-6.1H234Z"/><path class="cls-7" d="M344.33,530H230.81V517.52H344.33ZM234,526.83h107.1v-6.11H234Z"/><path class="cls-5" d="M598.19,304V369a15.05,15.05,0,0,1-15.05,15.05H521A15.05,15.05,0,0,1,505.92,369V288.1A15.05,15.05,0,0,1,521,273h46.32Z"/><path class="cls-1" d="M583.14,385.69H521A16.68,16.68,0,0,1,504.32,369V288.1A16.67,16.67,0,0,1,521,271.44h46.32a1.61,1.61,0,0,1,1.13.47l30.91,30.91a1.61,1.61,0,0,1,.47,1.13V369a16.69,16.69,0,0,1-16.66,16.66M521,274.65a13.46,13.46,0,0,0-13.44,13.45V369A13.46,13.46,0,0,0,521,382.48h62.17A13.46,13.46,0,0,0,596.59,369V304.62l-30-30Z"/><path class="cls-1" d="M598.19,305.56h-30.9a1.61,1.61,0,0,1-1.61-1.61V273a1.6,1.6,0,0,1,2.74-1.13l30.91,30.91a1.61,1.61,0,0,1-1.14,2.74m-29.3-3.21h25.43l-25.43-25.44Z"/><rect class="cls-1" x="524.69" y="322.66" width="53.96" height="3.21"/><rect class="cls-1" x="524.69" y="342.97" width="53.96" height="3.21"/><rect class="cls-1" x="524.69" y="363.28" width="53.96" height="3.21"/><path class="cls-5" d="M763.14,304V369a15.05,15.05,0,0,1-15.06,15.05H685.92a15,15,0,0,1-15-15.05V288.1a15,15,0,0,1,15-15.06h46.31Z"/><path class="cls-1" d="M748.08,385.69H685.92A16.68,16.68,0,0,1,669.26,369V288.1a16.67,16.67,0,0,1,16.66-16.66h46.31a1.61,1.61,0,0,1,1.13.47l30.91,30.91a1.61,1.61,0,0,1,.47,1.13V369a16.68,16.68,0,0,1-16.66,16.66m-62.16-111a13.46,13.46,0,0,0-13.45,13.45V369a13.46,13.46,0,0,0,13.45,13.45h62.16A13.46,13.46,0,0,0,761.53,369V304.62l-30-30Z"/><path class="cls-1" d="M763.14,305.56H732.23a1.6,1.6,0,0,1-1.6-1.61V273a1.6,1.6,0,0,1,2.73-1.13l30.91,30.91a1.6,1.6,0,0,1-1.13,2.74m-29.31-3.21h25.44l-25.44-25.44Z"/><rect class="cls-1" x="689.63" y="322.66" width="53.96" height="3.21"/><rect class="cls-1" x="689.63" y="342.97" width="53.96" height="3.21"/><rect class="cls-1" x="689.63" y="363.28" width="53.96" height="3.21"/><path class="cls-5" d="M928.91,304V369a15,15,0,0,1-15,15.05H851.7A15.05,15.05,0,0,1,836.64,369V288.1A15.06,15.06,0,0,1,851.7,273H898Z"/><path class="cls-1" d="M913.86,385.69H851.7A16.68,16.68,0,0,1,835,369V288.1a16.67,16.67,0,0,1,16.66-16.66H898a1.61,1.61,0,0,1,1.13.47l30.91,30.91a1.61,1.61,0,0,1,.47,1.13V369a16.68,16.68,0,0,1-16.66,16.66m-62.16-111a13.46,13.46,0,0,0-13.45,13.45V369a13.46,13.46,0,0,0,13.45,13.45h62.16A13.46,13.46,0,0,0,927.31,369V304.62l-30-30Z"/><polygon class="cls-5" points="898.01 303.95 928.91 303.95 898.01 273.05 898.01 303.95"/><path class="cls-1" d="M928.91,305.56H898A1.61,1.61,0,0,1,896.4,304V273a1.6,1.6,0,0,1,2.74-1.13l30.91,30.91a1.61,1.61,0,0,1-1.14,2.74m-29.3-3.21H925l-25.43-25.44Z"/><line class="cls-5" x1="855.41" y1="324.26" x2="909.37" y2="324.26"/><rect class="cls-1" x="855.41" y="322.66" width="53.96" height="3.21"/><line class="cls-5" x1="855.41" y1="344.57" x2="909.37" y2="344.57"/><rect class="cls-1" x="855.41" y="342.97" width="53.96" height="3.21"/><line class="cls-5" x1="855.41" y1="364.88" x2="909.37" y2="364.88"/><rect class="cls-1" x="855.41" y="363.28" width="53.96" height="3.21"/><path class="cls-5" d="M1145.12,470.16v65.08a15,15,0,0,1-15,15h-62.16a15.05,15.05,0,0,1-15.06-15V454.31a15,15,0,0,1,15.06-15.05h46.31Z"/><path class="cls-1" d="M1130.07,551.9h-62.16a16.68,16.68,0,0,1-16.66-16.66V454.31a16.67,16.67,0,0,1,16.66-16.66h46.31a1.61,1.61,0,0,1,1.13.47L1146.26,469a1.61,1.61,0,0,1,.47,1.13v65.08a16.68,16.68,0,0,1-16.66,16.66m-62.16-111a13.46,13.46,0,0,0-13.45,13.45v80.93a13.46,13.46,0,0,0,13.45,13.45h62.16a13.46,13.46,0,0,0,13.45-13.45V470.83l-30-30Z"/><path class="cls-1" d="M1145.12,471.77h-30.9a1.61,1.61,0,0,1-1.61-1.61V439.25a1.6,1.6,0,0,1,2.74-1.13L1146.26,469a1.61,1.61,0,0,1-1.14,2.74m-29.3-3.21h25.44l-25.44-25.44Z"/><rect class="cls-1" x="1071.62" y="488.87" width="53.96" height="3.21"/><rect class="cls-1" x="1071.62" y="509.18" width="53.96" height="3.21"/><rect class="cls-1" x="1071.62" y="529.49" width="53.96" height="3.21"/><path class="cls-3" d="M1147.06,307v65.08a15,15,0,0,1-15,15.05h-62.16a15.05,15.05,0,0,1-15.06-15.05V291.16a15.06,15.06,0,0,1,15.06-15.06h46.31Z"/><path class="cls-1" d="M1132,388.75h-62.16a16.68,16.68,0,0,1-16.66-16.66V291.16a16.67,16.67,0,0,1,16.66-16.66h46.31a1.61,1.61,0,0,1,1.13.47l30.91,30.91a1.61,1.61,0,0,1,.47,1.13v65.08A16.68,16.68,0,0,1,1132,388.75m-62.16-111a13.46,13.46,0,0,0-13.45,13.45v80.93a13.46,13.46,0,0,0,13.45,13.45H1132a13.46,13.46,0,0,0,13.45-13.45V307.68l-30-30Z"/><polygon class="cls-5" points="1116.16 307.01 1147.07 307.01 1116.16 276.1 1116.16 307.01"/><path class="cls-1" d="M1147.06,308.61h-30.9a1.6,1.6,0,0,1-1.61-1.6V276.1a1.6,1.6,0,0,1,2.74-1.13l30.91,30.91a1.6,1.6,0,0,1-1.14,2.73m-29.3-3.2h25.44L1117.76,280Z"/><line class="cls-5" x1="1073.56" y1="327.32" x2="1127.52" y2="327.32"/><rect class="cls-1" x="1073.56" y="325.72" width="53.96" height="3.21"/><line class="cls-5" x1="1073.56" y1="347.63" x2="1127.52" y2="347.63"/><rect class="cls-1" x="1073.56" y="346.03" width="53.96" height="3.21"/><line class="cls-5" x1="1073.56" y1="367.94" x2="1127.52" y2="367.94"/><rect class="cls-1" x="1073.56" y="366.34" width="53.96" height="3.21"/><path class="cls-5" d="M594.19,142.39v65.08a15.06,15.06,0,0,1-15.06,15.06H517a15.06,15.06,0,0,1-15.06-15.06V126.54A15.05,15.05,0,0,1,517,111.49h46.31Z"/><path class="cls-1" d="M579.13,224.13H517a16.67,16.67,0,0,1-16.66-16.66V126.54A16.68,16.68,0,0,1,517,109.88h46.31a1.61,1.61,0,0,1,1.13.47l30.91,30.91a1.61,1.61,0,0,1,.47,1.13v65.08a16.67,16.67,0,0,1-16.66,16.66M517,113.09a13.46,13.46,0,0,0-13.45,13.45v80.93A13.46,13.46,0,0,0,517,220.92h62.16a13.46,13.46,0,0,0,13.45-13.45V143.06l-30-30Z"/><path class="cls-8" d="M559.06,206.54H538.21A14.21,14.21,0,0,1,524,192.33V176.91a14.21,14.21,0,0,1,14.2-14.21h20.85a14.21,14.21,0,0,1,14.21,14.21v15.42a14.21,14.21,0,0,1-14.21,14.21"/><path class="cls-3" d="M601.42,126.94a22.29,22.29,0,1,1-22.29-22.29,22.29,22.29,0,0,1,22.29,22.29"/><rect class="cls-1" x="568.58" y="125.34" width="21.11" height="3.21"/><rect class="cls-1" x="577.53" y="116.38" width="3.21" height="21.11"/><path class="cls-5" d="M759.52,142.39v65.08a15.05,15.05,0,0,1-15,15.06H682.3a15.05,15.05,0,0,1-15-15.06V126.54a15.05,15.05,0,0,1,15-15.05h46.31Z"/><path class="cls-7" d="M744.47,224.13H682.3a16.67,16.67,0,0,1-16.65-16.66V126.54a16.68,16.68,0,0,1,16.65-16.66h46.31a1.59,1.59,0,0,1,1.13.47l30.91,30.91a1.61,1.61,0,0,1,.47,1.13v65.08a16.67,16.67,0,0,1-16.65,16.66m-62.17-111a13.46,13.46,0,0,0-13.45,13.45v80.93a13.46,13.46,0,0,0,13.45,13.45h62.17a13.47,13.47,0,0,0,13.45-13.45V143.06l-30-30Z"/><path class="cls-8" d="M724.4,206.54H703.55a14.21,14.21,0,0,1-14.21-14.21V176.91a14.21,14.21,0,0,1,14.21-14.21H724.4a14.21,14.21,0,0,1,14.2,14.21v15.42a14.21,14.21,0,0,1-14.2,14.21"/><path class="cls-3" d="M766.75,126.94a22.29,22.29,0,1,1-22.28-22.29,22.28,22.28,0,0,1,22.28,22.29"/><rect class="cls-7" x="733.91" y="125.34" width="21.11" height="3.21"/><rect class="cls-7" x="742.86" y="116.38" width="3.21" height="21.11"/><polygon class="cls-5" points="906.22 519.79 713.38 425.57 807.6 618.4 850.82 575.19 897.6 621.98 912.08 607.51 865.28 560.72 906.22 519.79"/><path class="cls-1" d="M897.6,623.58a1.6,1.6,0,0,1-1.13-.47l-45.66-45.65-42.08,42.08a1.58,1.58,0,0,1-1.39.44,1.61,1.61,0,0,1-1.18-.87L711.94,426.28a1.61,1.61,0,0,1,2.15-2.15l192.83,94.22a1.61,1.61,0,0,1,.43,2.57l-39.8,39.8,45.66,45.65a1.63,1.63,0,0,1,.47,1.14,1.61,1.61,0,0,1-.47,1.13l-14.47,14.47a1.64,1.64,0,0,1-1.14.47m-46.79-50a1.61,1.61,0,0,1,1.14.47l45.65,45.65,12.21-12.2-45.66-45.66a1.62,1.62,0,0,1,0-2.27l39.34-39.34L716.87,429.06l91.18,186.62,41.63-41.62a1.61,1.61,0,0,1,1.13-.47"/><path class="cls-6" d="M1107,406.24l-3.19-.25c.32-4.08.75-6.43.77-6.53l3.15.59s-.42,2.29-.73,6.19"/><path class="cls-1" d="M1027.43,214v10.18H0V214A32.05,32.05,0,0,1,32.05,182H995.38A32.05,32.05,0,0,1,1027.43,214"/><rect class="cls-3" y="224.21" width="224.27" height="657.63"/><rect class="cls-6" x="224.61" y="224.21" width="803.27" height="657.63"/><path class="cls-5" d="M42.14,202.46A10.19,10.19,0,1,1,32,192.26a10.19,10.19,0,0,1,10.19,10.2"/><path class="cls-5" d="M74.94,202.46a10.2,10.2,0,1,1-10.2-10.2,10.2,10.2,0,0,1,10.2,10.2"/><path class="cls-5" d="M107.73,202.46a10.19,10.19,0,1,1-10.19-10.2,10.19,10.19,0,0,1,10.19,10.2"/><path class="cls-5" d="M161.48,499.44v65.08a15.06,15.06,0,0,1-15.06,15.06H84.26A15.06,15.06,0,0,1,69.2,564.52V483.59a15.05,15.05,0,0,1,15.06-15h46.31Z"/><path class="cls-1" d="M147.11,581.18H84.94a16.67,16.67,0,0,1-16.65-16.66V483.59a16.68,16.68,0,0,1,16.65-16.66h46.31a1.61,1.61,0,0,1,1.14.47l30.9,30.91a1.61,1.61,0,0,1,.47,1.13v65.08a16.67,16.67,0,0,1-16.65,16.66m-62.17-111a13.47,13.47,0,0,0-13.45,13.45v80.93A13.47,13.47,0,0,0,84.94,578h62.17a13.47,13.47,0,0,0,13.45-13.45V500.11l-30-30Z"/><path class="cls-1" d="M162.16,501.05H131.25a1.61,1.61,0,0,1-1.6-1.61v-30.9a1.59,1.59,0,0,1,1-1.48,1.62,1.62,0,0,1,1.75.34l30.9,30.91a1.6,1.6,0,0,1-1.13,2.74m-29.3-3.21h25.43l-25.43-25.43Z"/><rect class="cls-1" x="88.66" y="518.15" width="53.96" height="3.21"/><rect class="cls-1" x="88.66" y="538.46" width="53.96" height="3.21"/><rect class="cls-1" x="88.66" y="558.77" width="53.96" height="3.21"/><path class="cls-5" d="M154.64,328.86v65.08a15,15,0,0,1-15,15.05H77.43a15.05,15.05,0,0,1-15.06-15.05V313A15.05,15.05,0,0,1,77.43,298h46.31Z"/><path class="cls-1" d="M139.59,410.59H77.43a16.67,16.67,0,0,1-16.66-16.65V313a16.67,16.67,0,0,1,16.66-16.65h46.31a1.61,1.61,0,0,1,1.13.47l30.91,30.9a1.63,1.63,0,0,1,.47,1.14v65.08a16.67,16.67,0,0,1-16.66,16.65m-62.16-111A13.47,13.47,0,0,0,64,313v80.94a13.47,13.47,0,0,0,13.45,13.45h62.16A13.47,13.47,0,0,0,153,393.94V329.52l-30-30Z"/><path class="cls-8" d="M119.52,393H98.67a14.21,14.21,0,0,1-14.2-14.21V363.38a14.21,14.21,0,0,1,14.2-14.21h20.85a14.21,14.21,0,0,1,14.21,14.21v15.41A14.21,14.21,0,0,1,119.52,393"/><path class="cls-1" d="M161.88,313.4a22.29,22.29,0,1,1-22.29-22.28,22.29,22.29,0,0,1,22.29,22.28"/><rect class="cls-5" x="129.04" y="311.8" width="21.11" height="3.21"/><rect class="cls-5" x="137.99" y="302.85" width="3.21" height="21.11"/><rect class="cls-3" x="253.57" y="278.82" width="217.39" height="17.31"/><rect class="cls-1" x="253.57" y="470.37" width="217.39" height="17.31"/><rect class="cls-1" x="253.57" y="504.36" width="217.39" height="17.31"/><rect class="cls-1" x="253.57" y="673.2" width="182.32" height="17.31"/><rect class="cls-1" x="253.57" y="707.19" width="182.32" height="17.31"/><rect class="cls-1" x="324.8" y="743.35" width="182.32" height="17.31"/><rect class="cls-4" x="386.56" y="777.34" width="182.32" height="17.31"/><rect class="cls-4" x="386.56" y="810.27" width="182.32" height="17.31"/><rect class="cls-1" x="324.63" y="315.89" width="217.39" height="17.31"/><rect class="cls-1" x="324.63" y="350.2" width="217.39" height="17.31"/><rect class="cls-1" x="324.63" y="384.51" width="243.89" height="17.31"/><rect class="cls-3" x="324.63" y="540.41" width="217.39" height="17.31"/><rect class="cls-3" x="324.63" y="574.72" width="287.42" height="17.31"/><rect class="cls-3" x="324.63" y="609.03" width="217.39" height="17.31"/><rect class="cls-1" x="241.7" y="854.6" width="217.39" height="17.31"/><rect class="cls-1" x="241.7" y="888.59" width="217.39" height="17.31"/><rect class="cls-3" x="312.76" y="924.63" width="217.39" height="17.31"/><rect class="cls-3" x="312.76" y="958.94" width="287.42" height="17.31"/><rect class="cls-3" x="312.76" y="993.25" width="217.39" height="17.31"/><rect class="cls-9" x="694.74" y="224.21" width="294.96" height="657.41"/><rect class="cls-10" x="762.06" y="323.04" width="174.66" height="14.75"/><path class="cls-2" d="M938.32,339.39H760.46v-18H938.32Zm-174.66-3.21H935.12V324.64H763.66Z"/><path class="cls-7" d="M874,372.83H760.45V360.31H874Zm-110.31-3.2h107.1v-6.11H763.66Z"/><path class="cls-7" d="M874,398.38H760.45V385.86H874Zm-110.31-3.21h107.1v-6.11H763.66Z"/><path class="cls-7" d="M874,423.92H760.45V411.4H874Zm-110.31-3.2h107.1v-6.11H763.66Z"/><path class="cls-7" d="M874,449.47H760.45V437H874Zm-110.31-3.21h107.1v-6.11H763.66Z"/><rect class="cls-6" x="762.06" y="489.64" width="174.66" height="14.75"/><path class="cls-10" d="M938.32,506H760.46V488H938.32Zm-174.66-3.2H935.12V491.25H763.66Z"/><path class="cls-7" d="M874,539.44H760.45V526.92H874Zm-110.31-3.2h107.1v-6.11H763.66Z"/><path class="cls-7" d="M874,565H760.45V552.47H874Zm-110.31-3.21h107.1v-6.11H763.66Z"/><path class="cls-7" d="M874,590.53H760.45V578H874Zm-110.31-3.2h107.1v-6.11H763.66Z"/><path class="cls-7" d="M874,616.08H760.45V603.56H874Zm-110.31-3.21h107.1v-6.11H763.66Z"/><rect class="cls-6" x="762.06" y="656.25" width="174.66" height="14.75"/><path class="cls-10" d="M938.32,672.6H760.46v-18H938.32Zm-174.66-3.2H935.12V657.85H763.66Z"/><path class="cls-7" d="M874,706.05H760.45V693.53H874Zm-110.31-3.21h107.1v-6.11H763.66Z"/><path class="cls-7" d="M874,731.59H760.45V719.07H874Zm-110.31-3.2h107.1v-6.11H763.66Z"/><path class="cls-7" d="M874,757.14H760.45V744.62H874Zm-110.31-3.21h107.1v-6.11H763.66Z"/><path class="cls-7" d="M874,782.68H760.45V770.16H874Zm-110.31-3.2h107.1v-6.11H763.66Z"/><rect class="cls-2" x="762.06" y="489.26" width="174.66" height="14.75"/><rect class="cls-2" x="762.06" y="656.57" width="174.66" height="14.75"/><polygon class="cls-5" points="716.65 649.74 523.82 555.52 618.03 748.35 661.25 705.13 708.04 751.92 722.51 737.45 675.72 690.66 716.65 649.74"/><path class="cls-1" d="M721.26,753.37a1.56,1.56,0,0,1-1.13-.47l-45.66-45.65-42.08,42.08a1.64,1.64,0,0,1-1.4.45,1.61,1.61,0,0,1-1.17-.88L535.6,556.07a1.61,1.61,0,0,1,2.14-2.15l192.83,94.22a1.59,1.59,0,0,1,.88,1.18,1.56,1.56,0,0,1-.45,1.39l-39.79,39.8,45.65,45.66a1.59,1.59,0,0,1,.47,1.13,1.61,1.61,0,0,1-.47,1.13L722.39,752.9a1.56,1.56,0,0,1-1.13.47m-46.79-50a1.61,1.61,0,0,1,1.13.47l45.66,45.65,12.21-12.2-45.66-45.66a1.59,1.59,0,0,1,0-2.26L727.15,650,540.53,558.85l91.18,186.62,41.63-41.62a1.59,1.59,0,0,1,1.13-.47"/></g></g></svg>