<svg xmlns="http://www.w3.org/2000/svg" viewBox="0 0 1248.2 1041.15"><defs><style>.cls-1{fill:#fde9e9;}.cls-2{fill:#ec5c5d;}.cls-3{fill:#069782;}.cls-4{fill:#e29a26;}.cls-5{fill:#fcb424;}.cls-6{fill:#fff;}.cls-7{fill:#0b2e4e;}.cls-8{fill:#f38db1;}.cls-9{fill:#f5f6f6;}.cls-10{fill:#e078ab;}.cls-11{fill:#b9529f;}.cls-12{fill:#068778;}.cls-13{fill:#f496b7;stroke:#231f20;stroke-miterlimit:10;stroke-width:2px;}.cls-14{fill:#698d8d;}</style></defs><title>img-diseño_1</title><g id="Layer_2" data-name="Layer 2"><g id="Layer_1-2" data-name="Layer 1"><rect class="cls-1" x="118.67" y="310.85" width="752.61" height="730.3"/><path class="cls-2" d="M1248.2,258.47v29.1H0v-29.1a34.91,34.91,0,0,1,34.92-34.91H1213.29a34.91,34.91,0,0,1,34.91,34.91"/><rect class="cls-3" y="287.57" width="1248.2" height="23.28"/><path class="cls-2" d="M119.29,310.85v730.3H34.92A34.92,34.92,0,0,1,0,1006.23V310.85Z"/><path class="cls-4" d="M1248.2,310.85v695.38a34.92,34.92,0,0,1-34.91,34.92H871.9V310.85Z"/><path class="cls-5" d="M1022.69,375.62V343.44A11.66,11.66,0,0,0,1011,331.77H894.32a11.66,11.66,0,0,0-11.66,11.67V643a1.42,1.42,0,0,0,1.41,1.42h349.38a1.42,1.42,0,0,0,1.42-1.42V377a1.41,1.41,0,0,0-1.42-1.41Z"/><path class="cls-6" d="M1234.52,332.81h-37.14a1.4,1.4,0,0,1,0-2.79h37.14a1.4,1.4,0,0,1,0,2.79"/><path class="cls-6" d="M1234.52,345h-37.14a1.4,1.4,0,0,1,0-2.79h37.14a1.4,1.4,0,0,1,0,2.79"/><path class="cls-6" d="M1234.52,357.21h-37.14a1.4,1.4,0,0,1,0-2.79h37.14a1.4,1.4,0,0,1,0,2.79"/><path class="cls-6" d="M1234.52,662.75h-37.14a1.4,1.4,0,0,1,0-2.8h37.14a1.4,1.4,0,0,1,0,2.8"/><path class="cls-6" d="M1234.52,675h-37.14a1.4,1.4,0,0,1,0-2.8h37.14a1.4,1.4,0,0,1,0,2.8"/><path class="cls-6" d="M1234.52,687.15h-37.14a1.4,1.4,0,0,1,0-2.8h37.14a1.4,1.4,0,0,1,0,2.8"/><path class="cls-6" d="M1117.46,633.43H903.52a10.29,10.29,0,0,1-10.27-10.27V394a10.29,10.29,0,0,1,10.27-10.28h8.84a1.4,1.4,0,1,0,0-2.79h-8.84A13.08,13.08,0,0,0,890.45,394V623.16a13.08,13.08,0,0,0,13.07,13.06h213.94a1.4,1.4,0,1,0,0-2.79"/><path class="cls-6" d="M1168.74,636.22h-8.84a1.4,1.4,0,1,1,0-2.79h8.84a1.4,1.4,0,1,1,0,2.79"/><path class="cls-6" d="M1213.3,636.22h-18.74a1.4,1.4,0,1,1,0-2.79h18.74a10.29,10.29,0,0,0,10.27-10.27V394.54a10.82,10.82,0,0,0-10.8-10.81H962.57a1.4,1.4,0,0,1,0-2.79h250.2a13.61,13.61,0,0,1,13.59,13.6V623.16a13.08,13.08,0,0,1-13.06,13.06"/><path class="cls-6" d="M932.16,383.73h-3.53a1.4,1.4,0,1,1,0-2.79h3.53a1.4,1.4,0,1,1,0,2.79"/><path class="cls-6" d="M1123.65,995.86H903.52a13.08,13.08,0,0,1-13.07-13.06V728.19a13.08,13.08,0,0,1,13.07-13.07h61a1.4,1.4,0,1,1,0,2.79h-61a10.29,10.29,0,0,0-10.27,10.28V982.8a10.29,10.29,0,0,0,10.27,10.27h220.13a1.4,1.4,0,1,1,0,2.79"/><path class="cls-6" d="M1177.23,995.86h-8.49a1.4,1.4,0,1,1,0-2.79h8.49a1.4,1.4,0,0,1,0,2.79"/><path class="cls-6" d="M1213.3,995.86h-12.2a1.4,1.4,0,1,1,0-2.79h12.2a10.29,10.29,0,0,0,10.27-10.27V728.19a10.29,10.29,0,0,0-10.27-10.28H1030.83a1.4,1.4,0,1,1,0-2.79H1213.3a13.08,13.08,0,0,1,13.06,13.07V982.8a13.08,13.08,0,0,1-13.06,13.06"/><path class="cls-6" d="M991.57,717.91h-6.36a1.4,1.4,0,1,1,0-2.79h6.36a1.4,1.4,0,1,1,0,2.79"/><rect class="cls-7" x="912.58" y="400.95" width="49.06" height="49.06"/><path class="cls-7" d="M963,451.41H911.19V399.55H963ZM914,448.61h46.27V402.35H914Z"/><rect class="cls-3" x="972.7" y="400.95" width="49.06" height="49.06"/><path class="cls-7" d="M1023.16,451.41H971.3V399.55h51.86Zm-49.06-2.8h46.26V402.35H974.1Z"/><rect class="cls-4" x="1032.82" y="400.95" width="49.06" height="49.06"/><path class="cls-7" d="M1083.27,451.41h-51.85V399.55h51.85Zm-49-2.8h46.26V402.35h-46.26Z"/><rect class="cls-8" x="1092.93" y="400.95" width="49.06" height="49.06"/><path class="cls-7" d="M1143.39,451.41h-51.85V399.55h51.85Zm-49.06-2.8h46.27V402.35h-46.27Z"/><rect class="cls-1" x="1153.05" y="400.95" width="49.06" height="49.06"/><path class="cls-7" d="M1203.51,451.41h-51.86V399.55h51.86Zm-49.06-2.8h46.26V402.35h-46.26Z"/><path class="cls-6" d="M976.37,982.07a1.4,1.4,0,0,1-1.4-1.39V728.19a1.4,1.4,0,1,1,2.79,0V980.68a1.39,1.39,0,0,1-1.39,1.39"/><path class="cls-6" d="M1134.44,982.07a1.4,1.4,0,0,1-1.4-1.39V728.19a1.4,1.4,0,0,1,2.8,0V980.68a1.4,1.4,0,0,1-1.4,1.39"/><path class="cls-1" d="M1195.64,848.06H919.06a18.72,18.72,0,0,1-18.72-18.72V804.19a18.72,18.72,0,0,1,18.72-18.72h276.58a18.72,18.72,0,0,1,18.72,18.72v25.15a18.72,18.72,0,0,1-18.72,18.72"/><path class="cls-7" d="M1197.59,849.46H917.11a18.19,18.19,0,0,1-18.17-18.16V802.24a18.18,18.18,0,0,1,18.17-18.16h280.48a18.18,18.18,0,0,1,18.17,18.16V831.3a18.19,18.19,0,0,1-18.17,18.16M917.11,786.87a15.4,15.4,0,0,0-15.38,15.37V831.3a15.4,15.4,0,0,0,15.38,15.37h280.48A15.39,15.39,0,0,0,1213,831.3V802.24a15.39,15.39,0,0,0-15.37-15.37Z"/><path class="cls-5" d="M957.62,816.6c0,6.59-14,14.49-22,14.49s-22-8.9-22-14.49c0-5.2,14-14.48,22-14.48s22,8.78,22,14.48"/><path class="cls-7" d="M935.61,832.49c-8.48,0-23.41-9.19-23.41-15.89,0-4.33,6.61-9,8.63-10.36,4-2.67,10.06-5.52,14.78-5.52,8.48,0,23.41,9.18,23.41,15.88,0,7.72-15.22,15.89-23.41,15.89m0-29c-7.67,0-20.61,8.93-20.61,13.09s12.73,13.09,20.61,13.09c7.47,0,20.62-7.56,20.62-13.09,0-2.06-3-5.36-7.37-8.21-4.59-3-9.79-4.88-13.25-4.88"/><path class="cls-7" d="M946.46,816a10.79,10.79,0,1,1-10.79-10.79A10.79,10.79,0,0,1,946.46,816"/><path class="cls-1" d="M1191.55,817.56a12.47,12.47,0,1,1-12.47-12.46,12.47,12.47,0,0,1,12.47,12.46"/><path class="cls-7" d="M1179.08,831.43A13.87,13.87,0,1,1,1193,817.56a13.88,13.88,0,0,1-13.87,13.87m0-24.93a11.07,11.07,0,1,0,11.07,11.06,11.07,11.07,0,0,0-11.07-11.06"/><path class="cls-5" d="M957.62,753.15c0,6.58-14,14.49-22,14.49s-22-8.91-22-14.49c0-5.21,14-14.49,22-14.49s22,8.78,22,14.49"/><path class="cls-1" d="M935.61,769c-8.48,0-23.41-9.18-23.41-15.88,0-4.33,6.61-9,8.63-10.36,4-2.67,10.06-5.53,14.78-5.53,8.48,0,23.41,9.19,23.41,15.89,0,7.72-15.22,15.88-23.41,15.88m0-29c-7.67,0-20.61,8.92-20.61,13.09s12.73,13.09,20.61,13.09c7.47,0,20.62-7.57,20.62-13.09,0-2.07-3-5.36-7.37-8.21-4.59-3-9.79-4.88-13.25-4.88"/><path class="cls-7" d="M946.46,752.59a10.79,10.79,0,1,1-10.79-10.79,10.79,10.79,0,0,1,10.79,10.79"/><path class="cls-1" d="M1191.55,754.11a12.47,12.47,0,1,1-12.47-12.46,12.47,12.47,0,0,1,12.47,12.46"/><path class="cls-7" d="M1179.08,768A13.86,13.86,0,1,1,1193,754.11,13.87,13.87,0,0,1,1179.08,768m0-24.93a11.07,11.07,0,1,0,11.07,11.07A11.08,11.08,0,0,0,1179.08,743"/><path class="cls-5" d="M957.62,877.8c0,6.59-14,14.49-22,14.49s-22-8.9-22-14.49c0-5.2,14-14.48,22-14.48s22,8.78,22,14.48"/><path class="cls-1" d="M935.61,893.69c-8.48,0-23.41-9.18-23.41-15.89,0-4.33,6.61-9,8.63-10.36,4-2.67,10.06-5.52,14.78-5.52,8.48,0,23.41,9.18,23.41,15.88,0,7.72-15.22,15.89-23.41,15.89m0-29c-7.67,0-20.61,8.93-20.61,13.09s12.73,13.09,20.61,13.09c7.47,0,20.62-7.56,20.62-13.09,0-2.06-3-5.36-7.37-8.21-4.59-3-9.79-4.88-13.25-4.88"/><path class="cls-7" d="M946.46,877.24a10.79,10.79,0,1,1-10.79-10.79,10.79,10.79,0,0,1,10.79,10.79"/><path class="cls-1" d="M1191.55,878.76a12.47,12.47,0,1,1-12.47-12.46,12.47,12.47,0,0,1,12.47,12.46"/><path class="cls-7" d="M1179.08,892.63A13.87,13.87,0,1,1,1193,878.76a13.88,13.88,0,0,1-13.87,13.87m0-24.93a11.07,11.07,0,1,0,11.07,11.06,11.07,11.07,0,0,0-11.07-11.06"/><path class="cls-5" d="M957.62,938.27c0,6.59-14,14.49-22,14.49s-22-8.9-22-14.49c0-5.2,14-14.48,22-14.48s22,8.78,22,14.48"/><path class="cls-1" d="M935.61,954.16c-8.48,0-23.41-9.18-23.41-15.89,0-4.33,6.61-9,8.63-10.36,4-2.67,10.06-5.52,14.78-5.52,8.48,0,23.41,9.18,23.41,15.88,0,7.72-15.22,15.89-23.41,15.89m0-29c-7.67,0-20.61,8.93-20.61,13.09s12.73,13.09,20.61,13.09c7.47,0,20.62-7.56,20.62-13.09,0-2.06-3-5.36-7.37-8.21-4.59-3-9.79-4.88-13.25-4.88"/><path class="cls-7" d="M946.46,937.71a10.79,10.79,0,1,1-10.79-10.79,10.79,10.79,0,0,1,10.79,10.79"/><path class="cls-1" d="M1191.55,939.24a12.47,12.47,0,1,1-12.47-12.47,12.46,12.46,0,0,1,12.47,12.47"/><path class="cls-7" d="M1179.08,953.1A13.87,13.87,0,1,1,1193,939.23a13.88,13.88,0,0,1-13.87,13.87m0-24.93a11.07,11.07,0,1,0,11.07,11.06,11.07,11.07,0,0,0-11.07-11.06"/><rect class="cls-1" x="995.33" y="734.55" width="37.26" height="37.26"/><path class="cls-7" d="M1034,773.21h-40V733.15h40Zm-37.26-2.8h34.47V736H996.73Z"/><rect class="cls-3" x="995.33" y="797.5" width="37.26" height="37.26"/><path class="cls-7" d="M1034,836.15h-40v-40h40Zm-37.26-2.79h34.47V798.89H996.73Z"/><rect class="cls-1" x="995.33" y="859.73" width="37.26" height="37.26"/><path class="cls-7" d="M1034,898.39h-40v-40h40Zm-37.26-2.79h34.47V861.13H996.73Z"/><rect class="cls-1" x="995.33" y="920.56" width="37.26" height="37.26"/><path class="cls-7" d="M1034,959.22h-40V919.16h40Zm-37.26-2.8h34.47V922H996.73Z"/><polygon class="cls-3" points="26.08 355.1 50.1 417.67 58.28 387.59 88.65 379.12 26.08 355.1"/><path class="cls-7" d="M50.32,422.16,23.65,352.67,93.1,379.33l-33.68,9.39ZM28.51,357.53l21.36,55.65,7.27-26.73,27.06-7.54Z"/><path class="cls-6" d="M62.8,373.27l-22-8.55c-.94-.36-1.34,1.14-.42,1.5l22,8.55c.93.36,1.33-1.14.41-1.5"/><path class="cls-6" d="M75.72,377a22.09,22.09,0,0,1-3.47-1.16c-.91-.39-1.7.95-.78,1.34a24.87,24.87,0,0,0,3.84,1.32.78.78,0,0,0,.41-1.5"/><polygon class="cls-1" points="26.08 476.04 50.1 538.61 58.28 508.52 88.65 500.06 26.08 476.04"/><path class="cls-7" d="M50.32,543.1,23.65,473.61,93.1,500.27l-33.68,9.39ZM28.51,478.47l21.36,55.65,7.27-26.73,27.06-7.54Z"/><path class="cls-6" d="M62.8,494.21l-22-8.55c-.94-.36-1.34,1.14-.42,1.5l22,8.55c.93.36,1.33-1.14.41-1.5"/><path class="cls-6" d="M72.89,498.19A23.43,23.43,0,0,1,69.43,497c-.91-.39-1.71,1-.79,1.34a23.82,23.82,0,0,0,3.84,1.31.77.77,0,0,0,.41-1.49"/><path class="cls-3" d="M185.39,276h41.76V234.26H185.39Zm31.83-9.92H195.31V244.18h21.91Z"/><path class="cls-9" d="M228.54,277.41H184V232.86h44.55Zm-41.75-2.8h39v-39h-39Zm31.83-7.13h-24.7v-24.7h24.7Zm-21.91-2.79h19.11V245.58H196.71Z"/><rect class="cls-1" x="121.99" y="233.09" width="41.75" height="41.75"/><path class="cls-9" d="M165.14,276.24H120.59V231.7h44.55Zm-41.75-2.79h39v-39h-39Z"/><path class="cls-7" d="M361,275.19H264.26a12.48,12.48,0,0,1-12.48-12.48V246.65a12.48,12.48,0,0,1,12.48-12.48H361a12.48,12.48,0,0,1,12.48,12.48v16.06A12.48,12.48,0,0,1,361,275.19"/><path class="cls-9" d="M362.25,276.59H263A12.59,12.59,0,0,1,250.39,264V245.35A12.59,12.59,0,0,1,263,232.77h99.29a12.59,12.59,0,0,1,12.58,12.58V264a12.6,12.6,0,0,1-12.58,12.58m-99.29-41a9.8,9.8,0,0,0-9.78,9.79V264a9.79,9.79,0,0,0,9.78,9.78h99.29A9.79,9.79,0,0,0,372,264V245.35a9.79,9.79,0,0,0-9.78-9.79Z"/><path class="cls-1" d="M478,275.19H410a12.48,12.48,0,0,1-12.48-12.48V246.65A12.48,12.48,0,0,1,410,234.17H478a12.47,12.47,0,0,1,12.48,12.48v16.06A12.48,12.48,0,0,1,478,275.19"/><path class="cls-9" d="M479.32,276.59H408.66A12.6,12.6,0,0,1,396.08,264V245.35a12.59,12.59,0,0,1,12.58-12.58h70.66a12.59,12.59,0,0,1,12.58,12.58V264a12.6,12.6,0,0,1-12.58,12.58m-70.66-41a9.79,9.79,0,0,0-9.78,9.79V264a9.79,9.79,0,0,0,9.78,9.78h70.66a9.8,9.8,0,0,0,9.79-9.78V245.35a9.8,9.8,0,0,0-9.79-9.79Z"/><path class="cls-1" d="M587.27,275.19H519.21a12.48,12.48,0,0,1-12.48-12.48V246.65a12.48,12.48,0,0,1,12.48-12.48h68.06a12.47,12.47,0,0,1,12.48,12.48v16.06a12.48,12.48,0,0,1-12.48,12.48"/><path class="cls-9" d="M588.57,276.59H517.91A12.6,12.6,0,0,1,505.33,264V245.35a12.59,12.59,0,0,1,12.58-12.58h70.66a12.59,12.59,0,0,1,12.58,12.58V264a12.6,12.6,0,0,1-12.58,12.58m-70.66-41a9.79,9.79,0,0,0-9.78,9.79V264a9.79,9.79,0,0,0,9.78,9.78h70.66a9.8,9.8,0,0,0,9.79-9.78V245.35a9.8,9.8,0,0,0-9.79-9.79Z"/><path class="cls-7" d="M476.87,256.91H410.39a2.24,2.24,0,1,1,0-4.47h66.48a2.24,2.24,0,0,1,0,4.47"/><rect class="cls-7" x="517.18" y="252.44" width="5.59" height="4.47"/><path class="cls-7" d="M567,256.91H556v-4.47H567Zm-22.12,0H533.83v-4.47h11.06Z"/><rect class="cls-7" x="578.07" y="252.44" width="5.59" height="4.47"/><path class="cls-6" d="M276.74,255.63H279a4.83,4.83,0,0,0,1.13,2.77,3.2,3.2,0,0,0,2.48,1,3.15,3.15,0,0,0,2.5-1.07,4,4,0,0,0,1-2.74,3.73,3.73,0,0,0-.92-2.72,3.08,3.08,0,0,0-2.29-.94,4.12,4.12,0,0,0-3.47,2.08,6.42,6.42,0,0,0-1.8-1.26l.71-8.9h9.22v4.59h-2.14v-2.36h-5.29l-.39,5a5.49,5.49,0,0,1,3.52-1.28,4.88,4.88,0,0,1,3.89,1.65,6,6,0,0,1,1.42,4.06,5.84,5.84,0,0,1-1.56,4.2,5.75,5.75,0,0,1-4.37,1.63,5.65,5.65,0,0,1-4.13-1.48,6.34,6.34,0,0,1-1.7-4.31"/><path class="cls-6" d="M298.37,264.44V251.21h-2v-2.1h4.39V251a5.43,5.43,0,0,1,4.28-2.07,5.57,5.57,0,0,1,4.2,1.74,6.31,6.31,0,0,1,1.65,4.52,6,6,0,0,1-1.8,4.61,5.79,5.79,0,0,1-8.33-.14v4.78h2.34v2.1h-6.9v-2.1Zm2.33-9.14a4.5,4.5,0,0,0,.41,1.91,3.66,3.66,0,0,0,3.4,2.13,3.69,3.69,0,0,0,2.79-1.13,4.23,4.23,0,0,0,1.1-3.1,3.91,3.91,0,0,0-1.15-3,3.71,3.71,0,0,0-2.61-1.08,3.81,3.81,0,0,0-2.76,1.17,4.18,4.18,0,0,0-1.18,3.11"/><path class="cls-6" d="M312.68,251.21v-2.1h1.57v-1.85l2.36-2.16v4h2.22v2.1h-2.22v5.85a5.71,5.71,0,0,0,.15,1.73q.17.33.78.33a3.4,3.4,0,0,0,1.29-.25V261a5.25,5.25,0,0,1-1.81.33,2.92,2.92,0,0,1-1.75-.48,2.06,2.06,0,0,1-.85-1.2,12.65,12.65,0,0,1-.17-2.49v-6Z"/><path class="cls-5" d="M312.72,393.92c-8.47,0-12.54-8.61-16.47-16.94-3.75-7.94-7.29-15.45-14.1-15.45S271.8,369,268.05,377c-3.93,8.33-8,16.94-16.46,16.94s-12.54-8.61-16.47-16.94c-3.74-7.94-7.28-15.45-14.1-15.45S210.67,369,206.92,377c-3.93,8.33-8,16.94-16.46,16.94S177.93,385.31,174,377c-3.75-7.94-7.29-15.45-14.1-15.45a1.31,1.31,0,1,1,0-2.61c8.47,0,12.53,8.62,16.46,16.94,3.75,7.95,7.29,15.45,14.1,15.45s10.35-7.5,14.1-15.45c3.93-8.32,8-16.94,16.46-16.94s12.54,8.62,16.46,16.94c3.75,7.95,7.29,15.45,14.11,15.45s10.35-7.5,14.1-15.45c3.93-8.32,8-16.94,16.46-16.94s12.53,8.62,16.46,16.94c3.75,7.95,7.29,15.45,14.11,15.45s10.35-7.5,14.1-15.45c3.93-8.32,8-16.94,16.46-16.94a1.31,1.31,0,1,1,0,2.61c-6.81,0-10.35,7.51-14.1,15.45-3.93,8.33-8,16.94-16.46,16.94"/><path class="cls-3" d="M312.72,445.84c-8.47,0-12.54-8.62-16.47-16.95-3.75-7.94-7.29-15.44-14.1-15.44s-10.35,7.5-14.1,15.45c-3.93,8.32-8,16.94-16.46,16.94s-12.54-8.62-16.47-16.95c-3.74-7.94-7.28-15.44-14.1-15.44s-10.35,7.5-14.1,15.44c-3.93,8.33-8,16.95-16.46,16.95s-12.53-8.62-16.46-16.95c-3.75-7.94-7.29-15.44-14.1-15.44a1.31,1.31,0,1,1,0-2.61c8.47,0,12.53,8.61,16.46,16.94,3.75,7.94,7.29,15.44,14.1,15.44s10.35-7.5,14.1-15.44c3.93-8.33,8-16.94,16.46-16.94s12.54,8.61,16.46,16.94c3.75,7.94,7.29,15.44,14.11,15.44s10.35-7.5,14.1-15.44c3.93-8.33,8-16.94,16.46-16.94s12.53,8.61,16.46,16.94c3.75,7.94,7.29,15.44,14.11,15.44s10.35-7.5,14.1-15.44c3.93-8.33,8-16.94,16.46-16.94a1.31,1.31,0,1,1,0,2.61c-6.81,0-10.35,7.5-14.1,15.45-3.93,8.32-8,16.94-16.46,16.94"/><path class="cls-7" d="M616.67,583.82a1.42,1.42,0,0,1-.76-.22,181,181,0,0,0-37.5-18.49,1.39,1.39,0,0,1,.93-2.63,183.88,183.88,0,0,1,38.09,18.77,1.4,1.4,0,0,1-.76,2.57"/><path class="cls-7" d="M660.57,624.87a1.41,1.41,0,0,1-1.14-.59c-1.43-2-3-4.08-4.58-6.09a1.4,1.4,0,0,1,2.19-1.75c1.63,2.06,3.21,4.15,4.67,6.23a1.4,1.4,0,0,1-1.14,2.2"/><path class="cls-7" d="M211.44,749.26a1.39,1.39,0,0,1-1.06-2.31c2.6-3,5.35-6,8.17-8.84a1.4,1.4,0,1,1,2,2c-2.77,2.82-5.48,5.75-8,8.71a1.37,1.37,0,0,1-1.05.48"/><path class="cls-7" d="M361.46,979.8c-35.47,0-69-5.57-97.49-16.44-23.13-8.82-42.5-20.85-57.57-35.75a117.93,117.93,0,0,1-32.06-55.43,1.4,1.4,0,1,1,2.71-.69c10.25,40.36,40.65,71.23,87.92,89.26C352.4,994.11,476.31,975,566.29,914.39c31.18-21,59.06-45.72,86-69.61,59.14-52.4,115-101.9,197.7-107.73a1.39,1.39,0,1,1,.2,2.78c-81.75,5.77-137.27,55-196.05,107-27,24-55,48.72-86.32,69.84-45.86,30.91-99.91,51.48-156.32,59.5a355.43,355.43,0,0,1-50.07,3.59"/><path class="cls-3" d="M566,442.48,581.5,427l47.08,47.08-15.52,15.51A33.29,33.29,0,0,1,566,442.48"/><path class="cls-7" d="M589.52,500.69A34.67,34.67,0,0,1,565,441.5L580.51,426a1.41,1.41,0,0,1,2,0l47.07,47.08a1.39,1.39,0,0,1,0,2l-15.51,15.51a34.59,34.59,0,0,1-24.53,10.14M567,443.47a31.89,31.89,0,1,0,45.1,45.1l14.53-14.52L581.5,429Z"/><rect class="cls-5" x="557.5" y="465.65" width="18.02" height="46.05" transform="translate(-179.62 543.72) rotate(-45)"/><path class="cls-7" d="M576.43,512.73a1.4,1.4,0,0,1-1-.41l-32.57-32.57a1.39,1.39,0,0,1,0-2L555.62,465a1.38,1.38,0,0,1,2,0l32.57,32.56a1.41,1.41,0,0,1,.41,1,1.43,1.43,0,0,1-.41,1l-12.75,12.74a1.4,1.4,0,0,1-1,.41m-30.59-34,30.59,30.58,10.76-10.76L556.6,468Z"/><path class="cls-6" d="M490.18,486l54.74-6.91,30.44,30.44-5.8,54.38a30.46,30.46,0,0,1-19.39,25.2l-90.55,29.79-6.45-6.45,36.64-31.37a10.65,10.65,0,1,0-15-15l-31.37,36.64-7.16-7.16,29.26-90.12A30.44,30.44,0,0,1,490.18,486"/><path class="cls-7" d="M459.62,620.33a1.38,1.38,0,0,1-1-.41l-6.45-6.45a1.39,1.39,0,0,1,.08-2.05l36.64-31.37a9.26,9.26,0,1,0-13-13l-31.37,36.64a1.36,1.36,0,0,1-1,.49,1.39,1.39,0,0,1-1-.41l-7.16-7.16a1.4,1.4,0,0,1-.34-1.42L464.19,505l0-.06A31.79,31.79,0,0,1,490,484.64l54.74-6.91a1.41,1.41,0,0,1,1.16.4l30.44,30.44a1.38,1.38,0,0,1,.4,1.14L571,564.09a31.72,31.72,0,0,1-20.28,26.36l-.06,0-90.56,29.79a1.29,1.29,0,0,1-.43.07m-4.4-7.77,4.78,4.78,89.7-29.51a28.94,28.94,0,0,0,18.47-24l5.73-53.71-29.48-29.49-54.06,6.83a29,29,0,0,0-23.52,18.5l-29,89.27,5.49,5.49,30.38-35.5a12.06,12.06,0,1,1,17,17Z"/><line class="cls-6" x1="590.57" y1="481.83" x2="627.89" y2="445.89"/><path class="cls-7" d="M514,541.22a1.39,1.39,0,0,1-1-2.4l37.32-35.94a1.4,1.4,0,0,1,1.94,2L515,540.83a1.39,1.39,0,0,1-1,.39"/><line class="cls-6" x1="573.83" y1="497.95" x2="576.55" y2="495.33"/><path class="cls-7" d="M497.27,557.35a1.37,1.37,0,0,1-1-.43,1.39,1.39,0,0,1,0-2l2.72-2.62a1.4,1.4,0,0,1,1.94,2L498.24,557a1.41,1.41,0,0,1-1,.39"/><path class="cls-6" d="M677.68,424.27a15.65,15.65,0,0,1-9.42,4.45c-2.55.25-2.57,4.26,0,4a20.08,20.08,0,0,0,12.26-5.62c1.85-1.8-1-4.63-2.84-2.83"/><path class="cls-6" d="M690.85,410.75a32.41,32.41,0,0,1-5.48,5.18,2.06,2.06,0,0,0-.71,2.74,2,2,0,0,0,2.74.72,36.8,36.8,0,0,0,6.28-5.81c1.66-2-1.16-4.81-2.83-2.83"/><path class="cls-7" d="M357.64,182.32h0A21.36,21.36,0,1,0,336.28,161a21.36,21.36,0,0,0,21.36,21.36"/><path class="cls-3" d="M271.73,182.32h0A21.36,21.36,0,1,0,250.37,161a21.36,21.36,0,0,0,21.36,21.36"/><path class="cls-4" d="M185.82,182.32h0a21.36,21.36,0,1,0,0-42.72h0a21.36,21.36,0,1,0,0,42.72"/><path class="cls-8" d="M99.91,182.32h0A21.36,21.36,0,1,0,78.55,161a21.36,21.36,0,0,0,21.36,21.36"/><rect class="cls-1" x="246.06" y="951.11" width="17.28" height="17.28" transform="translate(-734.13 869.19) rotate(-69.9)"/><path class="cls-7" d="M260.77,972.83l-19.16-7,7-19.15,19.16,7ZM245.62,964l13.29,4.87,4.87-13.3-13.3-4.86Z"/><line class="cls-1" x1="245.53" y1="955.31" x2="169.2" y2="923.07"/><rect class="cls-7" x="206.43" y="897.75" width="1.87" height="82.86" transform="translate(-738.5 764.8) rotate(-67.1)"/><line class="cls-1" x1="261.96" y1="961.75" x2="318.96" y2="1010.42"/><rect class="cls-7" x="289.52" y="948.62" width="1.87" height="74.95" transform="translate(-648.02 566.58) rotate(-49.5)"/><path class="cls-7" d="M177.31,923.9a6.87,6.87,0,1,1-6.86-6.87,6.86,6.86,0,0,1,6.86,6.87"/><path class="cls-7" d="M325.4,1009.59a6.86,6.86,0,1,1-6.86-6.86,6.87,6.87,0,0,1,6.86,6.86"/><rect class="cls-1" x="621.05" y="730.77" width="17.28" height="17.28" transform="translate(-252.82 333.94) rotate(-24.91)"/><path class="cls-7" d="M624.73,753l-8.59-18.5,18.5-8.59,8.59,18.5Zm-4.45-17,6,12.84,12.84-6-6-12.84Z"/><line class="cls-1" x1="620.14" y1="741.4" x2="586.07" y2="816.93"/><rect class="cls-7" x="561.67" y="778.23" width="82.86" height="1.87" transform="translate(-355.11 1008.63) rotate(-65.73)"/><line class="cls-1" x1="636.24" y1="735.69" x2="710.96" y2="729.8"/><rect class="cls-7" x="636.13" y="731.81" width="74.95" height="1.87" transform="translate(-55.57 55.28) rotate(-4.51)"/><path class="cls-7" d="M587.1,808.85a6.86,6.86,0,1,1-7,6.69,6.86,6.86,0,0,1,7-6.69"/><path class="cls-7" d="M714.93,724.66a6.86,6.86,0,1,1-9.71,0,6.86,6.86,0,0,1,9.71,0"/><path class="cls-4" d="M728.33,0h-232a56.19,56.19,0,0,0-56.13,56.13v232a56.19,56.19,0,0,0,56.13,56.13h232a56.19,56.19,0,0,0,56.12-56.13v-232A56.19,56.19,0,0,0,728.33,0m49.88,288.14A49.89,49.89,0,0,1,728.33,338h-232a49.89,49.89,0,0,1-49.89-49.89v-232A49.89,49.89,0,0,1,496.31,6.24h232a49.88,49.88,0,0,1,49.88,49.89Z"/><path class="cls-5" d="M728.33,6.24h-232a49.89,49.89,0,0,0-49.89,49.89v232A49.89,49.89,0,0,0,496.31,338h232a49.89,49.89,0,0,0,49.88-49.89v-232A49.89,49.89,0,0,0,728.33,6.24"/><path class="cls-4" d="M728.33,344.27h-232a56.19,56.19,0,0,1-56.12-56.13v-232A56.19,56.19,0,0,1,496.31,0h232a56.19,56.19,0,0,1,56.12,56.13v232a56.19,56.19,0,0,1-56.12,56.13m-232-331.79a43.7,43.7,0,0,0-43.64,43.65v232a43.7,43.7,0,0,0,43.64,43.65h232A43.7,43.7,0,0,0,772,288.14v-232a43.7,43.7,0,0,0-43.65-43.65Z"/><path class="cls-4" d="M594.82,255.08l-9.16-31.94H542.25l-9.73,31.94H492.14l50-162h52.6l50.82,162.05Zm-44.11-67.31h26.22l-13.12-47Z"/><rect class="cls-4" x="660.51" y="93.03" width="49.74" height="162.05"/><path class="cls-6" d="M745,46.12a3.15,3.15,0,0,1-2.34-1,40.1,40.1,0,0,0-11.8-9.1,3.12,3.12,0,0,1,2.83-5.56,46.24,46.24,0,0,1,13.63,10.51,3.12,3.12,0,0,1-2.32,5.2"/><path class="cls-6" d="M755.93,174.52a3.12,3.12,0,0,1-3.12-3.12V80.07a3.12,3.12,0,0,1,6.24,0V171.4a3.12,3.12,0,0,1-3.12,3.12"/><path class="cls-6" d="M511.9,318.86a46.36,46.36,0,0,1-46.31-46.3,3.12,3.12,0,0,1,6.24,0,40.11,40.11,0,0,0,40.07,40.06,3.12,3.12,0,1,1,0,6.24"/><path class="cls-6" d="M468.71,246.08a3.12,3.12,0,0,1-3.12-3.12V229.52a3.12,3.12,0,0,1,6.24,0V243a3.11,3.11,0,0,1-3.12,3.12"/><path class="cls-6" d="M468.71,189.54a3.12,3.12,0,0,1-3.12-3.12V121.58a3.12,3.12,0,1,1,6.24,0v64.84a3.11,3.11,0,0,1-3.12,3.12"/><path class="cls-6" d="M613.55,31.65H511.9a3.12,3.12,0,0,1,0-6.24H613.55a3.12,3.12,0,1,1,0,6.24"/><path class="cls-6" d="M721.45,32.53a2.7,2.7,0,0,1-.63-.07,40.41,40.41,0,0,0-8.08-.81,3.12,3.12,0,0,1,0-6.24,47,47,0,0,1,9.33.94,3.12,3.12,0,0,1-.62,6.18"/><path class="cls-6" d="M815.6,245.25,737.71,215c-3.31-1.28-4.73,4-1.47,5.3l77.9,30.23c3.3,1.28,4.73-4,1.46-5.3"/><path class="cls-6" d="M861.29,258.4A79.68,79.68,0,0,1,849,254.31c-3.22-1.39-6,3.34-2.78,4.74a86.56,86.56,0,0,0,13.57,4.65c3.43.86,4.9-4.44,1.46-5.3"/><path class="cls-4" d="M836,299.64H675.11a39,39,0,0,0-38.9,38.91V499.38a39,39,0,0,0,38.9,38.91H836a39,39,0,0,0,38.91-38.91V338.55A39,39,0,0,0,836,299.64m34.58,199.74A34.59,34.59,0,0,1,836,534H675.11a34.59,34.59,0,0,1-34.58-34.59V338.55A34.58,34.58,0,0,1,675.11,304H836a34.58,34.58,0,0,1,34.58,34.58Z"/><path class="cls-10" d="M836,304H675.11a34.58,34.58,0,0,0-34.58,34.58V499.38A34.59,34.59,0,0,0,675.11,534H836a34.59,34.59,0,0,0,34.58-34.59V338.55A34.58,34.58,0,0,0,836,304"/><path class="cls-11" d="M836,538.29H675.11a39,39,0,0,1-38.9-38.91V338.55a39,39,0,0,1,38.9-38.91H836a39,39,0,0,1,38.91,38.91V499.38A39,39,0,0,1,836,538.29m-160.84-230a30.29,30.29,0,0,0-30.25,30.26V499.38a30.29,30.29,0,0,0,30.25,30.26H836a30.29,30.29,0,0,0,30.25-30.26V338.55A30.29,30.29,0,0,0,836,308.29Z"/><path class="cls-6" d="M847.5,331.61a2.14,2.14,0,0,1-1.61-.72,27.91,27.91,0,0,0-8.18-6.31,2.16,2.16,0,1,1,2-3.86,32.4,32.4,0,0,1,9.45,7.29,2.17,2.17,0,0,1-1.62,3.6"/><path class="cls-6" d="M855.08,420.62a2.16,2.16,0,0,1-2.16-2.16V355.15a2.16,2.16,0,1,1,4.32,0v63.31a2.16,2.16,0,0,1-2.16,2.16"/><path class="cls-6" d="M685.92,520.68a32.14,32.14,0,0,1-32.1-32.1,2.17,2.17,0,0,1,4.33,0,27.8,27.8,0,0,0,27.77,27.77,2.17,2.17,0,0,1,0,4.33"/><path class="cls-6" d="M656,470.23a2.16,2.16,0,0,1-2.16-2.16v-9.32a2.17,2.17,0,0,1,4.33,0v9.32a2.17,2.17,0,0,1-2.17,2.16"/><path class="cls-6" d="M656,431a2.17,2.17,0,0,1-2.16-2.17V383.92a2.17,2.17,0,0,1,4.33,0v44.95A2.17,2.17,0,0,1,656,431"/><path class="cls-6" d="M756.39,321.58H685.92a2.16,2.16,0,1,1,0-4.32h70.47a2.16,2.16,0,0,1,0,4.32"/><path class="cls-6" d="M831.18,322.19a2.18,2.18,0,0,1-.44,0,27.57,27.57,0,0,0-5.6-.57,2.16,2.16,0,1,1,0-4.32,32.57,32.57,0,0,1,6.47.65,2.16,2.16,0,0,1-.43,4.28"/><path class="cls-11" d="M675.35,380.29h28.86l15,26.08,14.6-26.08h28.57L736,421.35l28.88,43.73H735.44L718.7,437.84,702,465.08H672.69l29.25-44.19Z"/><path class="cls-11" d="M836.36,380.29v84.79h-22V456q-4.64,5.78-8.45,7.8a24,24,0,0,1-11.33,2.66q-12.56,0-19.17-9.54t-6.63-23.19q0-15.27,7.32-23.37a24,24,0,0,1,18.59-8.09,25.79,25.79,0,0,1,10,1.85,22.55,22.55,0,0,1,8,5.55V380.29Zm-23.59,53.9q0-7.23-3.07-10.78a9.8,9.8,0,0,0-7.75-3.56,8.54,8.54,0,0,0-6.88,3.41q-2.77,3.42-2.78,11.45,0,7.53,2.86,11a8.83,8.83,0,0,0,7.09,3.5,9.49,9.49,0,0,0,7.52-3.53Q812.76,442.18,812.77,434.19Z"/><polygon class="cls-12" points="673.8 188.55 758.75 409.86 787.7 303.45 895.11 273.5 673.8 188.55"/><path class="cls-7" d="M770.9,406.78,683.3,178.55l228.18,87.59L800.76,297ZM688.15,183.41l82.3,214.39,28-103,104.11-29Z"/><rect class="cls-13" x="204.37" y="487.39" width="209.02" height="338.06"/><circle class="cls-5" cx="310" cy="569.91" r="46.96"/><rect class="cls-14" x="235.9" y="651.31" width="148.19" height="12.52"/><rect class="cls-14" x="235.9" y="676.36" width="148.19" height="12.52"/><rect class="cls-14" x="235.9" y="700.36" width="148.19" height="12.52"/><rect class="cls-1" x="268.48" y="754.74" width="78.85" height="26.79" rx="13.4" ry="13.4"/><path class="cls-7" d="M605.52,743.33q-3.06,0-6.24-.19c-27.22-1.62-58.75-13.61-92.13-26.29-48.71-18.51-103.92-39.49-161.75-35.16a195.49,195.49,0,0,0-80.74,24.68,1.4,1.4,0,0,1-1.37-2.44,198.39,198.39,0,0,1,81.9-25c58.46-4.38,114,16.72,163,35.33,33.18,12.61,64.51,24.52,91.31,26.12,29.36,1.75,50.67-9,67-34a1.4,1.4,0,1,1,2.34,1.54c-15.8,24.05-36,35.42-63.31,35.42"/></g></g></svg>