<svg xmlns="http://www.w3.org/2000/svg" xmlns:xlink="http://www.w3.org/1999/xlink" viewBox="0 0 825.39 656.48"><defs><style>.cls-1,.cls-13,.cls-14{fill:none;}.cls-2{isolation:isolate;}.cls-3{fill:#9dce76;}.cls-4{fill:url(#linear-gradient);}.cls-5{fill:#f1f2f2;}.cls-41,.cls-43,.cls-6{fill:#fff;}.cls-7{fill:#068778;}.cls-10,.cls-8{fill:#fcb424;}.cls-9{fill:#ec5c5d;}.cls-10{opacity:0.61;}.cls-11{fill:#2f3068;}.cls-12{fill:#181e3c;}.cls-13,.cls-14{stroke:#fff;stroke-miterlimit:10;}.cls-13{stroke-width:4px;}.cls-14{stroke-width:2px;}.cls-15{clip-path:url(#clip-path);}.cls-16{fill:url(#linear-gradient-2);}.cls-17{clip-path:url(#clip-path-2);}.cls-18{fill:url(#linear-gradient-3);}.cls-19{clip-path:url(#clip-path-3);}.cls-20{fill:url(#linear-gradient-4);}.cls-21{fill:url(#linear-gradient-5);}.cls-22{fill:url(#linear-gradient-6);}.cls-23{fill:#c49a6c;}.cls-24,.cls-29,.cls-37,.cls-38,.cls-50{mix-blend-mode:multiply;}.cls-24{fill:url(#linear-gradient-7);}.cls-25{fill:url(#linear-gradient-8);}.cls-26{fill:url(#linear-gradient-9);}.cls-27{fill:url(#linear-gradient-10);}.cls-28{fill:url(#linear-gradient-11);}.cls-29{fill:url(#linear-gradient-12);}.cls-30{fill:#004e6c;}.cls-31{fill:#20100e;}.cls-32{fill:url(#linear-gradient-13);}.cls-33{fill:url(#linear-gradient-14);}.cls-34{fill:url(#linear-gradient-15);}.cls-35{fill:url(#linear-gradient-16);}.cls-36{fill:#f7941d;}.cls-38{fill:url(#linear-gradient-17);}.cls-39{fill:url(#linear-gradient-18);}.cls-40{fill:url(#linear-gradient-19);}.cls-41{opacity:0.6;}.cls-42{fill:url(#linear-gradient-20);}.cls-43,.cls-44{opacity:0.4;}.cls-44{mix-blend-mode:darken;}.cls-45{fill:#d1d3d4;}.cls-46{fill:url(#linear-gradient-21);}.cls-47{fill:url(#linear-gradient-22);}.cls-48{fill:url(#linear-gradient-23);}.cls-49{fill:url(#linear-gradient-24);}.cls-50{fill:#e6e7e8;}.cls-51{fill:url(#linear-gradient-25);}.cls-52{fill:#006866;}.cls-53{fill:url(#linear-gradient-26);}.cls-54{fill:#9e9ece;}</style><linearGradient id="linear-gradient" x1="799.97" y1="934.82" x2="889.23" y2="934.82" gradientTransform="matrix(-0.8, -0.27, -0.42, 0.89, 1758.23, -97.68)" gradientUnits="userSpaceOnUse"><stop offset="0" stop-color="#1b75bc"/><stop offset="1" stop-color="#63be6a"/></linearGradient><clipPath id="clip-path"><path class="cls-1" d="M174.86,209.58A15,15,0,0,1,191.8,222.4l16.08,115.84a15,15,0,0,1-12.81,16.95l-1.38.19a15,15,0,0,1-16.94-12.81L160.67,226.72a15,15,0,0,1,12.81-16.95Z"/></clipPath><linearGradient id="linear-gradient-2" x1="160.52" y1="282.48" x2="208.03" y2="282.48" gradientUnits="userSpaceOnUse"><stop offset="0.52" stop-color="#b15883"/><stop offset="1" stop-color="#7a2d8d"/></linearGradient><clipPath id="clip-path-2"><path class="cls-1" d="M104.35,242a15,15,0,0,1,21.22.9l79.11,86.15a15,15,0,0,1-.91,21.23l-1,.94a15,15,0,0,1-21.23-.9l-79.1-86.15a15,15,0,0,1,.9-21.23Z"/></clipPath><linearGradient id="linear-gradient-3" x1="98.46" y1="296.62" x2="208.64" y2="296.62" gradientTransform="matrix(1, 0, 0, 1, 0, 0)" xlink:href="#linear-gradient"/><clipPath id="clip-path-3"><path class="cls-1" d="M67.81,297.5a15,15,0,0,1,19.08-9.35L197.54,326a15,15,0,0,1,9.35,19.09l-.45,1.31a15,15,0,0,1-19.08,9.35L76.71,317.89a15,15,0,0,1-9.35-19.08Z"/></clipPath><linearGradient id="linear-gradient-4" x1="-376.8" y1="-3006.21" x2="-282.7" y2="-3006.21" gradientTransform="translate(2981.17 -706.78) rotate(-103.63)" gradientUnits="userSpaceOnUse"><stop offset="0.1" stop-color="#f6895d"/><stop offset="0.95" stop-color="#f16680"/></linearGradient><linearGradient id="linear-gradient-5" x1="1075.71" y1="775.01" x2="1108.43" y2="775.01" gradientTransform="translate(1479.14 -711.62) rotate(90)" gradientUnits="userSpaceOnUse"><stop offset="0.16" stop-color="#ffda8b"/><stop offset="0.33" stop-color="#fdc784"/><stop offset="0.66" stop-color="#f79772"/><stop offset="1" stop-color="#f15f5d"/></linearGradient><linearGradient id="linear-gradient-6" x1="676.97" y1="381.92" x2="737.95" y2="381.92" gradientTransform="matrix(1, 0, 0, 1, 0, 0)" xlink:href="#linear-gradient-5"/><linearGradient id="linear-gradient-7" x1="623.41" y1="391.01" x2="799.2" y2="391.01" gradientUnits="userSpaceOnUse"><stop offset="0" stop-color="#fff"/><stop offset="1" stop-color="#231f20" stop-opacity="0.8"/></linearGradient><linearGradient id="linear-gradient-8" x1="685.27" y1="372.99" x2="728.82" y2="372.99" gradientTransform="matrix(1, 0, 0, 1, 0, 0)" xlink:href="#linear-gradient-5"/><linearGradient id="linear-gradient-9" x1="3605.83" y1="3435.57" x2="3519.51" y2="3434.81" gradientTransform="matrix(0.04, -1, -1, -0.04, 3633.77, 4023.91)" gradientUnits="userSpaceOnUse"><stop offset="0" stop-color="#fdce86"/><stop offset="0.16" stop-color="#ffda8b"/><stop offset="0.33" stop-color="#fdc784"/><stop offset="0.66" stop-color="#f79772"/><stop offset="1" stop-color="#f15f5d"/></linearGradient><linearGradient id="linear-gradient-10" x1="3614.15" y1="3426.84" x2="3657.7" y2="3426.84" gradientTransform="matrix(0.04, -1, -1, -0.04, 3633.77, 4023.91)" xlink:href="#linear-gradient-5"/><linearGradient id="linear-gradient-11" x1="441.53" y1="541.2" x2="678.89" y2="541.2" xlink:href="#linear-gradient-2"/><linearGradient id="linear-gradient-12" x1="509.18" y1="541.2" x2="678.89" y2="541.2" xlink:href="#linear-gradient-7"/><linearGradient id="linear-gradient-13" x1="1038.45" y1="-158.52" x2="1093" y2="-158.52" gradientTransform="matrix(-1, 0.08, 0.08, 1, 1562.95, 317.49)" gradientUnits="userSpaceOnUse"><stop offset="0" stop-color="#ffda8b"/><stop offset="0.2" stop-color="#fdc784"/><stop offset="0.59" stop-color="#f79772"/><stop offset="1" stop-color="#f15f5d"/></linearGradient><linearGradient id="linear-gradient-14" x1="-7983.83" y1="-143.56" x2="-7977.77" y2="-260.49" gradientTransform="matrix(1, -0.08, 0.08, 1, 8465.47, -259.86)" xlink:href="#linear-gradient-5"/><linearGradient id="linear-gradient-15" x1="1056.58" y1="-175.51" x2="1056.58" y2="-189.78" gradientTransform="matrix(-1, 0.08, 0.08, 1, 1562.95, 317.49)" gradientUnits="userSpaceOnUse"><stop offset="0" stop-color="#ffda8b" stop-opacity="0"/><stop offset="0.11" stop-color="#fed087" stop-opacity="0.08"/><stop offset="0.33" stop-color="#fbb87e" stop-opacity="0.28"/><stop offset="0.65" stop-color="#f7906f" stop-opacity="0.6"/><stop offset="1" stop-color="#f15f5d"/></linearGradient><linearGradient id="linear-gradient-16" x1="1029.56" y1="-177.99" x2="1029.56" y2="-188.07" xlink:href="#linear-gradient-15"/><linearGradient id="linear-gradient-17" x1="624.02" y1="252.02" x2="799.81" y2="252.02" xlink:href="#linear-gradient-7"/><linearGradient id="linear-gradient-18" x1="743.67" y1="252.02" x2="827.14" y2="252.02" xlink:href="#linear-gradient-7"/><linearGradient id="linear-gradient-19" x1="751.42" y1="201.71" x2="825.39" y2="201.71" gradientTransform="matrix(1, 0, 0, 1, 0, 0)" xlink:href="#linear-gradient"/><linearGradient id="linear-gradient-20" x1="578.68" y1="116.55" x2="641.39" y2="116.55" gradientUnits="userSpaceOnUse"><stop offset="0" stop-color="#f89420"/><stop offset="1" stop-color="#f04f36"/></linearGradient><linearGradient id="linear-gradient-21" x1="154.92" y1="441.93" x2="182.98" y2="441.93" gradientUnits="userSpaceOnUse"><stop offset="0" stop-color="#f15f5d"/><stop offset="1" stop-color="#ffda8b"/></linearGradient><linearGradient id="linear-gradient-22" x1="170.73" y1="448.63" x2="191.46" y2="448.63" xlink:href="#linear-gradient-21"/><linearGradient id="linear-gradient-23" x1="159.34" y1="415.57" x2="176.51" y2="415.57" xlink:href="#linear-gradient-21"/><linearGradient id="linear-gradient-24" x1="-4431.73" y1="-484.9" x2="-4392.5" y2="-470.01" gradientTransform="matrix(-0.98, 0.19, 0.19, 0.98, -3915.59, 1727.98)" xlink:href="#linear-gradient-21"/><linearGradient id="linear-gradient-25" x1="-4396.36" y1="-458.73" x2="-4391.18" y2="-558.71" gradientTransform="matrix(-0.98, 0.19, 0.19, 0.98, -3915.59, 1727.98)" gradientUnits="userSpaceOnUse"><stop offset="0" stop-color="#fff"/><stop offset="0.05" stop-color="#fffefa"/><stop offset="0.11" stop-color="#fff9ed"/><stop offset="0.17" stop-color="#fff2d7"/><stop offset="0.23" stop-color="#ffe8b8"/><stop offset="0.29" stop-color="#ffdc91"/><stop offset="0.3" stop-color="#ffda8b"/><stop offset="0.43" stop-color="#fdc784"/><stop offset="0.71" stop-color="#f79772"/><stop offset="1" stop-color="#f15f5d"/></linearGradient><linearGradient id="linear-gradient-26" x1="-2600.06" y1="587.72" x2="-2544.58" y2="587.72" gradientTransform="translate(2752.38)" gradientUnits="userSpaceOnUse"><stop offset="0.09" stop-color="#ffda8b"/><stop offset="0.27" stop-color="#ffd68a"/><stop offset="0.43" stop-color="#fdcb85"/><stop offset="0.59" stop-color="#fbb87e"/><stop offset="0.74" stop-color="#f89e74"/><stop offset="0.89" stop-color="#f47c68"/><stop offset="1" stop-color="#f15f5d"/></linearGradient></defs><title>img-concenos_1</title><g class="cls-2"><g id="Layer_2" data-name="Layer 2"><g id="Layer_1-2" data-name="Layer 1"><path class="cls-3" d="M627.82,612.54a330.49,330.49,0,0,1,18.73-40.2c11.82-21.46,10.61-23.92,9.28-49.75s7.39-34.62,8.28-53.88,1.69-13.46-5.94-31.46-23.95-21.37-20.76-40.75c0,0-11.63,38.17-17,62.66s-8.92,34.7-3,48.62,6.54,20.56-2.08,46.88-2.16,53.59,1.7,59.25S627.82,612.54,627.82,612.54Z"/><path class="cls-4" d="M625.77,606.81l11.49-67.66s7-32.81,13.2-39,31.43-23.9,38.49-33.43,12-22.74,18.39-38.38,36-47.51,38.83-52.36-13.5,37.22-12.67,54.57,8.64,22.6-1.42,37.8-6.49,33.74-9.76,46.3a146,146,0,0,1-33.07,62.53c-22.75,25.79-47.28,56-59.58,56.24S623.51,612.58,625.77,606.81Z"/><path class="cls-3" d="M645,626.74s-1.15-26.15,9.88-37,21.15-4.17,32.57-27.9,7.51-29.14,18.26-39.08,36.69-21.59,58.5-8.83,17.13,61,17.13,61-7.32-35.81-22.26-30.41-14.63,7.31-18.6,16.73-23.28,19.53-34.11,23.88-6.83,11.83-16.84,31.19S656.11,639.18,645,626.74Z"/><path class="cls-5" d="M635.9,613.62A200.3,200.3,0,0,1,648,591.68c4.39-6.71,13.51-23.66,22.33-40.06,4.77-8.87,9.71-18,13.83-25.46,5.24-9.46,8.4-14.82,11.45-20,3.82-6.49,7.43-12.61,14.68-26C723.43,456,721.46,431,721.36,429.94l-2.27.67c0,.24,2,25.22-10.74,48.64-7.21,13.29-10.81,19.39-14.61,25.85-3.07,5.2-6.24,10.58-11.5,20.07-4.13,7.44-9.07,16.63-13.85,25.5C659.6,567,650.51,583.91,646.2,590.5a200.76,200.76,0,0,0-12.3,22.34Z"/><path class="cls-6" d="M623.7,602.81l2.2.22c3.76-15.38,16.22-94.37,14.4-105.81-1.73-10.92,1.56-56.38,1.59-56.84l-2.27.26c-.14,1.88-3.35,46.22-1.57,57.42C639.74,508.69,628,585.34,623.7,602.81Z"/><path class="cls-7" d="M696.86,125.82a85.45,85.45,0,1,1-85.45-85.44A85.45,85.45,0,0,1,696.86,125.82Z"/><path class="cls-8" d="M74.12,378.56c-.66-3.31-1.29-6.41-1.87-9.36s-1-5.72-1.41-8.28S70,356,69.75,353.87c-.39-2.81-.71-5.17-1-7.15,4.32-5.41,34.94-47-.36-96.45,0,0-48.69,45.09-.6,96.54-.07,2-.12,4.38-.1,7.19,0,4.35.21,9.63.54,15.69.23,3,.49,6.24.77,9.62s1.15,6.88,1.75,10.56c.55,2.85,1.08,5.84,1.67,8.89-2.29-2.37-5.31-5.47-8.36-8.6l-4.49-4.6L58,384C57.11,309.63,2.7,305.71,2.7,305.71,13.38,383,45.54,385.88,55.24,384.93c.81.79,1.68,1.61,2.59,2.49,1.43,1.46,3,3,4.47,4.58,3,3.11,6.07,6.23,8.34,8.58.32.26.49.63.84.82l.94.56.8.47q1.25,5.34,2.54,11c.5,2.08.94,4.2,1.51,6.32l1.8,6.39c1.23,4.3,2.49,8.71,3.76,13.19,1.45,4.49,2.85,8.89,4.45,13.44.76,2.14,1.56,4.31,2.34,6.47a17.91,17.91,0,0,0-1.19-1.6c-.75-1-1.51-1.94-2.29-2.93-1.52-1.95-3-3.93-4.49-5.77l-4.2-4.83a9.8,9.8,0,0,0-.88-1c-.36-.26-.7-.49-1-.73l-.8-.51c-3-11.22-18-55.09-74.76-58.56,0,0,4.41,66.12,74.51,61.22a3.41,3.41,0,0,1,.17.33,8.81,8.81,0,0,0,.87,1l4.12,4.74c1.41,1.81,2.93,3.74,4.44,5.7l2.25,2.89a29.34,29.34,0,0,1,2,2.89c1.27,1.93,2.43,3.73,3.45,5.26.28.36.4.81.74,1.09l.55.51c3.06,8.31,6.16,16.67,8.73,25.16,1.53,4.65,2.67,9.4,3.91,14.09.59,2.35,1,4.75,1.5,7.09s1,4.72,1.3,7.1c.07.55.14,1.06.21,1.61-.2-.31-.4-.61-.62-.92A46.69,46.69,0,0,0,105.1,519c-1-1.43-2.37-2.7-3.6-4.11s-2.67-2.63-4.13-3.84c-1.39-1.05-2.72-2.21-4.2-3.13.31-.15.61-.26.93-.4,0,0-24.69-52.05-82.2-34.82,0,0,21.32,60.37,78.42,36.45l1.07.67A45.76,45.76,0,0,1,95.7,513c1.39,1.16,2.67,2.44,4,3.68s2.44,2.56,3.45,3.93a48.89,48.89,0,0,1,3,3.91c.93,1.27,1.68,2.53,2.4,3.68.4.57.61,1.21,1,1.69.06.07.1.15.16.22.27,2.14.52,4.27.63,6.4.17,2.34.37,4.66.55,7s.08,4.64.12,6.91.09,4.56.12,6.81-.17,4.48-.25,6.68c-.21,4.41-.29,8.72-.78,12.9s-.8,8.26-1.18,12.21c-.14.93-.27,1.84-.41,2.76-.31-.84-.65-1.68-1-2.5a38.68,38.68,0,0,0-5.94-9.2c-.26-.26-.4-.62-.71-.8l-.87-.51c-.37-.21-.66-.35-1-.51-1.26-6-12.12-49.36-61.48-48.47,0,0,3.87,58.15,60.5,49.31l.51,1.05.42.86c.14.29.46.47.66.76a36.41,36.41,0,0,1,5.54,8.59,29.14,29.14,0,0,1,1.85,5.11,19.27,19.27,0,0,1,.55,2.44c0,.12,0,.22,0,.34l-.3,2.13c-.27,1.81-.54,3.6-.81,5.35s-.66,3.4-.84,5.08q-.62,5-1.17,9.48c-.66,6-1.55,11.13-2.25,15.39-1.37,8.54-2.06,13.46-2.06,13.46s1.48-4.72,3.94-13c1.22-4.17,2.76-9.2,4.17-15.09.52-2,1.06-4.15,1.62-6.35l.52-.33.86-.57c.31-.18.46-.56.74-.82a14.55,14.55,0,0,1,1.68-1.79l2.08-1.81c.74-.63,1.44-1.32,2.24-1.94s1.68-1.12,2.52-1.69a19.74,19.74,0,0,1,2.58-1.6c.89-.47,1.77-.93,2.6-1.35a20.21,20.21,0,0,1,2.53-1.1c.82-.3,1.56-.67,2.29-.87a6.87,6.87,0,0,0,1-.31c.16-.11.29-.2.45-.29,10.37,1.45,58,5,82.95-47.18,0,0-62.28-20.54-84.39,45.06-.28.08-.55.21-.86.27-.78.22-1.57.6-2.44.92a21.93,21.93,0,0,0-2.68,1.16c-.89.46-1.82.94-2.77,1.45a22.17,22.17,0,0,0-2.72,1.68c-.9.6-1.78,1.2-2.67,1.81s-1.59,1.36-2.37,2l-2.18,1.93a5.54,5.54,0,0,0-.91.9c.61-2.88.89-5.94,1.4-9.07q.79-5.52,1.67-11.5c.37-4,.78-8.14,1.19-12.39s.59-8.66.79-13.15c.08-2.24.17-4.52.27-6.81,0-1.17,0-2.38-.06-3.56.13-.07.24-.14.38-.2s.29-.43.49-.61l4.81-6.15,4.82-6.16c.1-.16.24-.27.34-.41,12.55-3.4,54.41-18.83,58.18-74.06,0,0-66.39,3.92-61.74,74.41l-3.62,4.62c-1.31,1.66-2.61,3.32-3.73,4.76,0-2.21,0-4.42-.13-6.67s-.38-4.77-.56-7.17c-.24-4.82-1.06-9.63-1.72-14.53-.29-2.44-.86-4.84-1.33-7.28s-.93-4.89-1.55-7.3c-.94-3.58-1.88-7.19-2.91-10.76,0-.4,0-.8,0-1.22,0-2.32-.23-5-.07-7.94s.17-6,.42-9.15c.36-6.23,1-12.45,1.48-17.12a14.18,14.18,0,0,0,.18-1.67l-.06-.86c6-4,49.68-35.08,22.18-89.87,0,0-59.93,47.76-24.16,88.79a.85.85,0,0,1-.06.17c-.15.47-.29,1-.46,1.49s-.08,1.1-.18,1.68c-.51,4.69-1.14,10.94-1.51,17.23-.25,3.13-.3,6.3-.41,9.25,0,.22,0,.42,0,.64-2.55-7.82-5.41-15.47-8.17-23-1.7-4.55-3.3-9.07-4.89-13.5s-3-9-4.42-13.32c-1.25-4.41-2.49-8.78-3.7-13q-.9-3.19-1.8-6.32c-.55-2.09-1-4.18-1.47-6.22-.85-3.69-1.67-7.25-2.48-10.75a25.26,25.26,0,0,1,.22-3.1,39.6,39.6,0,0,1,.59-4,38.1,38.1,0,0,1,.91-3.94c.3-1.29.78-2.51,1.16-3.73a56.19,56.19,0,0,1,2.75-6.37c.2-.47.52-.83.67-1.29l.4-1.28s0-.05,0-.08c9.78-4.39,40.8-21.81,27.22-61.24,0,0-45.45,16.65-30.23,61.91a4.93,4.93,0,0,1-.39.8,60.08,60.08,0,0,0-2.89,6.68c-.39,1.28-.89,2.55-1.21,3.91-.34,1.2-.6,2.41-.83,3.65-.28-1.5-.54-3-.81-4.42C75.16,385.35,74.72,381.86,74.12,378.56Z"/><path class="cls-9" d="M75.34,614.91s31.81-17.39,22.87-61.19-23.5-70.17-.39-108.19,34.66-89,.41-123S68.15,104.12,245.54,32.14C512-76,596.36,123.35,596.36,123.35s130,234.74-17.39,240.84c-95.48,4-79.14,69.87-128,109.1s-129-17.74-143.83,22.9-28.38,35.69-50.13,43.37-34.62,53.38-33.13,66.62"/><path class="cls-10" d="M57.47,555s42.73-5.77,67.14-56,7.51-65,56.34-85.37,82.74-23.05,63.75-92.23S231.13,232,266.4,196.69s52.89-51.54,107.15-35.26,93.58-9.5,109.86-29.84,33.91-36.62,69.17,0,108.51,65.1,108.51,65.1,94.94,126.14,0,146.48-142.42-28.48-179-4.06-39.33,73.24-85.44,86.8S317.94,420.48,280,440.83s-26.15,24.67-30.22,45S211,514,194.81,523.49,181.58,610,181.58,610"/><polygon class="cls-11" points="210.86 630.71 77.26 630.71 36.44 529.67 170.03 529.67 210.86 630.71"/><polygon class="cls-12" points="199.67 630.63 66.07 630.63 25.25 529.58 158.84 529.58 199.67 630.63"/><rect class="cls-13" x="360.22" y="423.7" width="33.8" height="33.8"/><path class="cls-13" d="M416.6,458a17.87,17.87,0,1,1-17.87-17.86A17.86,17.86,0,0,1,416.6,458Z"/><polygon class="cls-13" points="427 430.21 404.81 458.49 427.34 458.49 427 430.21"/><rect class="cls-14" x="595.37" y="243.71" width="33.8" height="33.8"/><path class="cls-14" d="M651.75,278a17.87,17.87,0,1,1-17.86-17.87A17.86,17.86,0,0,1,651.75,278Z"/><polygon class="cls-14" points="664.98 277.55 687.17 305.83 664.63 305.83 664.98 277.55"/><path class="cls-6" d="M685.8,385.8a3.57,3.57,0,1,1-3.57-3.57A3.57,3.57,0,0,1,685.8,385.8Zm-3.25-67.95a3.57,3.57,0,1,0,3.57,3.57A3.57,3.57,0,0,0,682.55,317.85ZM750.19,386a3.57,3.57,0,1,0-3.57,3.57A3.58,3.58,0,0,0,750.19,386Zm-67.64-46.73a3.57,3.57,0,1,0,3.57,3.57A3.57,3.57,0,0,0,682.55,339.31ZM728.73,386a3.57,3.57,0,1,0-3.57,3.57A3.58,3.58,0,0,0,728.73,386Zm-46.18-25.27a3.57,3.57,0,1,0,3.57,3.57A3.57,3.57,0,0,0,682.55,360.77ZM685.8,386a3.57,3.57,0,1,0-3.57,3.57A3.57,3.57,0,0,0,685.8,386Zm18.31-3.81a3.57,3.57,0,1,0,3.57,3.57A3.58,3.58,0,0,0,704.11,382.23Zm.32-42.92a3.57,3.57,0,1,0,3.57,3.57A3.56,3.56,0,0,0,704.43,339.31Zm0,21.46a3.57,3.57,0,1,0,3.57,3.57A3.56,3.56,0,0,0,704.43,360.77Zm20.94,0a3.57,3.57,0,1,0,3.56,3.57A3.57,3.57,0,0,0,725.37,360.77ZM707.68,386a3.57,3.57,0,1,0-3.57,3.57A3.57,3.57,0,0,0,707.68,386Zm-28.52-.26a3.57,3.57,0,1,0,3.57-3.57A3.57,3.57,0,0,0,679.16,385.78Zm-.32-64.39a3.57,3.57,0,1,0,3.57-3.56A3.57,3.57,0,0,0,678.84,321.39Zm-60.5,68.19a3.57,3.57,0,1,0-3.56-3.56A3.56,3.56,0,0,0,618.34,389.58Zm60.5-46.72a3.57,3.57,0,1,0,3.57-3.57A3.57,3.57,0,0,0,678.84,342.86Zm-39,46.72a3.57,3.57,0,1,0-3.57-3.56A3.56,3.56,0,0,0,639.81,389.58Zm39-25.26a3.57,3.57,0,1,0,3.57-3.57A3.56,3.56,0,0,0,678.84,364.32Zm3.89,25.26a3.57,3.57,0,1,0-3.57-3.56A3.56,3.56,0,0,0,682.73,389.58Zm-25.45-3.8a3.57,3.57,0,1,0,3.56-3.57A3.56,3.56,0,0,0,657.28,385.78ZM657,342.86a3.57,3.57,0,1,0,3.57-3.57A3.57,3.57,0,0,0,657,342.86Zm0,21.46a3.57,3.57,0,1,0,3.57-3.57A3.56,3.56,0,0,0,657,364.32Zm-20.93,0a3.57,3.57,0,1,0,3.56-3.57A3.56,3.56,0,0,0,636,364.32Zm24.81,25.26a3.57,3.57,0,1,0-3.56-3.56A3.56,3.56,0,0,0,660.84,389.58Z"/><g class="cls-15"><path class="cls-16" d="M174.86,209.58A15,15,0,0,1,191.8,222.4l16.08,115.84a15,15,0,0,1-12.81,16.95l-1.38.19a15,15,0,0,1-16.94-12.81L160.67,226.72a15,15,0,0,1,12.81-16.95Z"/><rect class="cls-6" x="161.05" y="237.79" width="39.02" height="3.57" transform="translate(-37.17 33.19) rotate(-9.53)"/><rect class="cls-6" x="165.06" y="265.59" width="39.03" height="3.57" transform="translate(-41.71 34.24) rotate(-9.53)"/><rect class="cls-6" x="169.24" y="294.49" width="39.03" height="3.57" transform="translate(-46.44 35.34) rotate(-9.53)"/><rect class="cls-6" x="172.8" y="319.11" width="39.03" height="3.57" transform="matrix(0.99, -0.17, 0.17, 0.99, -50.45, 36.25)"/><path class="cls-6" d="M196,339.92a3.81,3.81,0,1,1-4.31-3.23A3.81,3.81,0,0,1,196,339.92Z"/></g><g class="cls-17"><path class="cls-18" d="M104.35,242a15,15,0,0,1,21.22.9l79.11,86.15a15,15,0,0,1-.91,21.23l-1,.94a15,15,0,0,1-21.23-.9l-79.1-86.15a15,15,0,0,1,.9-21.23Z"/><rect class="cls-6" x="106.58" y="261.65" width="39.03" height="3.57" transform="translate(-147.94 162.41) rotate(-44.19)"/><rect class="cls-6" x="125.69" y="282.24" width="39.03" height="3.57" transform="translate(-156.88 181.55) rotate(-44.18)"/><rect class="cls-6" x="145.56" y="303.64" width="39.03" height="3.57" transform="translate(-166.17 201.45) rotate(-44.18)"/><rect class="cls-6" x="162.49" y="321.87" width="39.03" height="3.57" transform="translate(-174.09 218.41) rotate(-44.18)"/><path class="cls-6" d="M195.82,337.22a3.81,3.81,0,1,1-5.38-.2A3.81,3.81,0,0,1,195.82,337.22Z"/></g><g class="cls-19"><path class="cls-20" d="M67.81,297.5a15,15,0,0,1,19.08-9.35L197.54,326a15,15,0,0,1,9.35,19.09l-.45,1.31a15,15,0,0,1-19.08,9.35L76.71,317.89a15,15,0,0,1-9.35-19.08Z"/><rect class="cls-6" x="77.64" y="304.15" width="39.03" height="3.57" transform="translate(-223.83 307.86) rotate(-72.73)"/><rect class="cls-6" x="104.26" y="313.1" width="39.03" height="3.57" transform="translate(-213.66 339.58) rotate(-72.73)"/><rect class="cls-6" x="131.94" y="322.4" width="39.03" height="3.57" transform="translate(-203.08 372.55) rotate(-72.73)"/><rect class="cls-6" x="155.52" y="330.33" width="39.03" height="3.57" transform="translate(-194.08 400.63) rotate(-72.73)"/><path class="cls-6" d="M193.66,337.44a3.8,3.8,0,1,1-4.82,2.39A3.8,3.8,0,0,1,193.66,337.44Z"/></g><path class="cls-6" d="M344,140.18l9.3-2.81,33.56,40.26-10.55,3.18-7.29-9-19.39,5.84-1.09,11.55-10.29,3.09ZM362.77,164l-10.57-13-1.62,16.71Z"/><path class="cls-6" d="M387.78,166.36l0-.13c-2.31-7.66,2.46-13,10.77-15.46a26,26,0,0,1,9-1.15l-.18-.58c-1.24-4.13-4.49-5.65-9.47-4.15a27,27,0,0,0-9.12,4.82L384,142.86a32.21,32.21,0,0,1,12.77-6.92c5.44-1.64,9.8-1.38,13,.35,3.41,1.84,5.75,5.35,7.17,10.06l6.14,20.37-9.63,2.9-1.14-3.8a14.09,14.09,0,0,1-9.27,7.65C396.45,175.47,389.87,173.3,387.78,166.36ZM410,157.18l-.53-1.77a16.19,16.19,0,0,0-6.75.61c-4.26,1.28-6.37,3.77-5.42,6.92l0,.13c.81,2.68,3.51,3.59,6.72,2.62C408.66,164.29,411,160.79,410,157.18Z"/><path class="cls-6" d="M456.39,179.32,324.06,219.19,297.2,130,429.53,90.15ZM324.87,217.69l130-39.17L428.72,91.64l-130,39.17Z"/><rect class="cls-6" x="294.49" y="127.41" width="7.01" height="7.01" transform="translate(-25.1 91.52) rotate(-16.76)"/><rect class="cls-6" x="320.49" y="213.71" width="7.01" height="7.01" transform="translate(-48.88 102.66) rotate(-16.76)"/><rect class="cls-6" x="359.79" y="107.74" width="7.01" height="7.01" transform="translate(-16.65 109.53) rotate(-16.77)"/><rect class="cls-6" x="385.79" y="194.04" width="7.01" height="7.01" transform="translate(-40.44 120.69) rotate(-16.77)"/><rect class="cls-6" x="425.1" y="88.07" width="7.01" height="7.01" transform="translate(-8.2 127.52) rotate(-16.76)"/><rect class="cls-6" x="451.09" y="174.37" width="7.01" height="7.01" transform="matrix(0.96, -0.29, 0.29, 0.96, -31.99, 138.69)"/><path class="cls-6" d="M231.28,435.85a25.29,25.29,0,1,1,25.29-25.29A25.31,25.31,0,0,1,231.28,435.85Zm0-49.33a24,24,0,1,0,24,24A24.08,24.08,0,0,0,231.28,386.52Z"/><path class="cls-6" d="M231.28,433.89a23.33,23.33,0,1,1,23.32-23.33A23.35,23.35,0,0,1,231.28,433.89Zm0-44.52a21.2,21.2,0,1,0,21.19,21.19A21.22,21.22,0,0,0,231.28,389.37Z"/><line class="cls-6" x1="230.66" y1="397.66" x2="230.66" y2="413.33"/><path class="cls-6" d="M230.66,414.4a1.07,1.07,0,0,1-1.06-1.07V397.66a1.07,1.07,0,1,1,2.13,0v15.67A1.07,1.07,0,0,1,230.66,414.4Z"/><path class="cls-6" d="M230.42,414.65a.79.79,0,0,1-.58-.25.82.82,0,0,1,0-1.17l6.95-7a.83.83,0,0,1,1.17,1.17l-7,6.95A.79.79,0,0,1,230.42,414.65Z"/><rect class="cls-21" x="695.71" y="364.17" width="16.95" height="32.72" transform="translate(113.7 920.91) rotate(-70.85)"/><path class="cls-22" d="M678.67,365.1,677,379.85l25.65,13.71s16.92,6.29,19.7,5,15.63-19,15.63-19l-1.8-9.26-9.79-.24-6-.61-11,19.5,4.24,2.88-1.36.68L678,378.32"/><polygon class="cls-23" points="799.2 239.07 767.87 227.21 623.41 551.75 630.53 554.8 799.2 239.07"/><polygon class="cls-24" points="799.2 239.07 767.87 227.21 623.41 551.75 630.53 554.8 799.2 239.07"/><path class="cls-25" d="M688.67,363.74l18.86,5.2,5.48-5.27,12.06,1.63,3.75,16.85s-5.32,1.34-7.15-3.77l-.72-2.32s-4.64,7.06-10.61,5.05-25.07-9.8-25.07-9.8"/><path class="cls-26" d="M348.91,243.17l-13.63-37.43-4.36.64,5.18,28.31s-14.4,8.73-15.78,11.46S324.6,266,324.6,266l12.74,26.14L352.15,291"/><path class="cls-27" d="M353.87,281.08,349.39,262l5.46-5.27-1.17-12.12L337,240.26s-1.53,5.28,3.5,7.29l2.29.81s-7.23,4.37-5.44,10.41,8.86,25.42,8.86,25.42"/><polyline class="cls-28" points="575.81 426.59 678.89 655.81 441.53 651.74 452.38 446.93"/><polyline class="cls-29" points="575.81 426.59 678.89 655.81 557.33 651.4 509.18 460.83"/><polyline class="cls-30" points="542.56 273.65 613.31 326.98 696.43 362.63 685.24 393.15 600.06 362.98 524.5 311.77"/><path class="cls-31" d="M444.3,236.9,461.81,169s11.17-17.76,35.56-14.24,28.36,19.39,28.36,19.39,31.84,54.73,9.49,70c0,0-33-6.4-45.41,6.09"/><path class="cls-32" d="M501.27,241.9,480,220.58s1.46,42.14-15.4,49.45,65.65,6.53,50.8,2.56-14.11-30.31-14.11-30.31"/><path class="cls-33" d="M522,195.65l-.32,1.66-18.92,1.51-8-18.65-.48,19.32L475.5,201l.16,1.95h-.15c-5.34.45-9.19,6.44-8.61,13.39s5.38,12.22,10.72,11.77a7,7,0,0,0,.92-.14c3,13.46,28.55,22.19,34.1,20.21C534.33,240.44,522,195.65,522,195.65Z"/><path class="cls-31" d="M502.91,206.32a2.1,2.1,0,1,1-2.26-1.92A2.1,2.1,0,0,1,502.91,206.32Z"/><path class="cls-31" d="M519.07,204a2.1,2.1,0,1,1-2.26-1.91A2.1,2.1,0,0,1,519.07,204Z"/><path class="cls-6" d="M517.41,224.19l-17.8,1.49s3.58,10.53,13.79,9.16"/><path class="cls-31" d="M480.75,183.16s4,61.81,11.55,72.92l-8.89-.12S470,219.28,469.29,193.28"/><path class="cls-34" d="M487.72,224.2a7.14,7.14,0,1,0,6.52-7.71A7.14,7.14,0,0,0,487.72,224.2Z"/><path class="cls-35" d="M516.7,221.39a5,5,0,1,0,4.6-5.45A5,5,0,0,0,516.7,221.39Z"/><path class="cls-6" d="M468.88,265.87l-34.13,11.52,5.26,237,161.4-39.33L529.86,269.59l-23.73-6.1s-7.77,11.78-29.5,4.58Z"/><path class="cls-36" d="M530.57,285.56a2.22,2.22,0,0,1-1.93,2.45l-82.48,9.93a2.21,2.21,0,0,1-2.45-1.92h0a2.22,2.22,0,0,1,1.93-2.46l82.48-9.93a2.22,2.22,0,0,1,2.45,1.93Z"/><path class="cls-36" d="M534,300.25a2.19,2.19,0,0,1-1.92,2.45l-82.48,9.93a2.19,2.19,0,0,1-2.45-1.92h0a2.19,2.19,0,0,1,1.92-2.45l82.48-9.94a2.21,2.21,0,0,1,2.45,1.93Z"/><path class="cls-36" d="M537.46,314.94a2.19,2.19,0,0,1-1.92,2.45l-82.48,9.94a2.21,2.21,0,0,1-2.45-1.93h0a2.2,2.2,0,0,1,1.92-2.45L535,313a2.19,2.19,0,0,1,2.45,1.92Z"/><path class="cls-36" d="M540.91,329.64a2.22,2.22,0,0,1-1.93,2.45L456.51,342a2.21,2.21,0,0,1-2.46-1.93h0a2.22,2.22,0,0,1,1.93-2.45l82.48-9.93a2.22,2.22,0,0,1,2.45,1.93Z"/><path class="cls-36" d="M544.36,344.33a2.21,2.21,0,0,1-1.93,2.45L460,356.71a2.2,2.2,0,0,1-2.45-1.92h0a2.21,2.21,0,0,1,1.93-2.45l82.47-9.94a2.22,2.22,0,0,1,2.46,1.93Z"/><path class="cls-36" d="M547.8,359a2.19,2.19,0,0,1-1.92,2.45L463.4,371.4a2.19,2.19,0,0,1-2.45-1.92h0a2.2,2.2,0,0,1,1.92-2.45l82.48-9.93A2.19,2.19,0,0,1,547.8,359Z"/><path class="cls-36" d="M551.25,373.71a2.2,2.2,0,0,1-1.92,2.45l-82.48,9.94a2.21,2.21,0,0,1-2.45-1.93h0a2.2,2.2,0,0,1,1.92-2.45l82.48-9.93a2.2,2.2,0,0,1,2.45,1.92Z"/><path class="cls-36" d="M554.7,388.41a2.22,2.22,0,0,1-1.93,2.45l-82.48,9.93a2.2,2.2,0,0,1-2.45-1.92h0a2.22,2.22,0,0,1,1.93-2.46l82.48-9.93a2.22,2.22,0,0,1,2.45,1.93Z"/><path class="cls-36" d="M558.14,403.1a2.19,2.19,0,0,1-1.92,2.45l-82.48,9.93a2.2,2.2,0,0,1-2.45-1.92h0a2.19,2.19,0,0,1,1.92-2.45l82.48-9.94a2.21,2.21,0,0,1,2.45,1.93Z"/><path class="cls-36" d="M561.59,417.79a2.2,2.2,0,0,1-1.92,2.45l-82.48,9.94a2.21,2.21,0,0,1-2.45-1.93h0a2.2,2.2,0,0,1,1.92-2.45l82.48-9.93a2.19,2.19,0,0,1,2.45,1.92Z"/><polygon class="cls-30" points="402.89 530.22 481.65 513.26 462.72 267.56 426.73 276.77 402.89 530.22"/><path class="cls-6" d="M453.57,285.19c-.3,3-.6,5.92-.94,8.87s-.67,5.91-1,8.86c-.68,5.9-1.47,11.79-2.21,17.69l-1.2,8.83c-.41,2.94-.79,5.89-1.23,8.82l-1.27,8.82c-.43,2.94-.83,5.88-1.29,8.82l-1.22-2.1c7.12,2.7,14.28,5.33,21.38,8.09l2.45.95-1.57,2.08-9.21,12.17-9.31,12.09.06-2c2.42,3.72,4.77,7.47,7.16,11.21s4.73,7.5,7.08,11.25,4.66,7.55,7,11.32l3.44,5.7L475,432.4l-4-5.34-3.93-5.37c-2.59-3.6-5.21-7.18-7.76-10.8s-5.15-7.22-7.67-10.87-5.09-7.26-7.59-10.92l-.67-1,.73-1,9-12.32,9.1-12.24.88,3c-7.14-2.67-14.23-5.47-21.34-8.19l-1.46-.56.24-1.54c.46-2.93,1-5.86,1.48-8.79l1.49-8.78c.49-2.93,1-5.85,1.55-8.78l1.57-8.77c1.1-5.84,2.16-11.68,3.32-17.51q.84-4.38,1.74-8.75C452.32,291,453,288.1,453.57,285.19Z"/><polygon class="cls-30" points="514.27 265.36 577.27 493.43 622.6 480.37 599.65 437.99 541.73 272.98 514.27 265.36"/><path class="cls-6" d="M528.51,282.48q3.19,6.45,6.27,12.95c2.07,4.32,4.07,8.68,6.09,13s4,8.71,6,13.09,3.93,8.74,5.84,13.13a1.4,1.4,0,0,1,0,1.1h0c-2,5.09-4,10.2-6.07,15.27l-.56-1.79,10.66,7.17h0a1.45,1.45,0,0,1,.62,1.12l.44,13.68.34,13.69c.08,4.57.18,9.13.2,13.7l0,6.85,0,6.86-.64-6.83-.57-6.83c-.38-4.55-.68-9.1-1-13.66l-.88-13.66-.77-13.67.64,1.13-10.71-7.08a1.49,1.49,0,0,1-.56-1.78h0c2-5.1,4.09-10.16,6.14-15.24v1.11c-1.89-4.4-3.71-8.84-5.56-13.25s-3.65-8.87-5.47-13.3-3.59-8.89-5.32-13.36S530.18,287,528.51,282.48Z"/><path class="cls-30" d="M426.78,276.83l-54.08,67L359.25,279.2l-30.52,9L345.4,389.46s2,13.73,18,8.65C384.06,391.66,436.1,355,436.1,355"/><circle class="cls-6" cx="609.71" cy="126.84" r="71.88"/><path class="cls-6" d="M578.47,180s13.23,23.39-8.14,34.58c0,0,35.61,16.28,42.73-27.46"/><g class="cls-37"><path class="cls-38" d="M768.49,226.21l-16.71,37.53a29.29,29.29,0,0,0,4.48,4.64,38.86,38.86,0,0,0,3.19,2.62,35.79,35.79,0,0,0,19.13,6.83l21.23-39.76Z"/><path class="cls-39" d="M768.49,226.21l-16.71,37.53a29.29,29.29,0,0,0,4.48,4.64,38.86,38.86,0,0,0,3.19,2.62,35.79,35.79,0,0,0,19.13,6.83l21.23-39.76Z"/></g><path class="cls-40" d="M825.39,139.66l-.06.06a1.57,1.57,0,0,1,0-.2l-.3.48c-3,3-26,25.84-54.76,52.82-12.88,12.09-17.55,22.33-18.61,30.16q-.15,1.17-.21,2.28c-.4,10.76,2.31,23,11.12,30.21a35.89,35.89,0,0,0,2.82,2.33,32.28,32.28,0,0,0,31,3.77,23.21,23.21,0,0,0,2.41-1.37,57.48,57.48,0,0,0,6.56-5.32,25.35,25.35,0,0,0,2.69-1.94c6.34-5.23,12.87-15.75,13.59-36.94,1.37-39.8,3.45-72.3,3.7-76.11Z"/><path class="cls-41" d="M809,163.12s-31.53,25.77-36.62,38.66.34,24.75,8.14,18.31S809,163.12,809,163.12Z"/><path class="cls-12" d="M617.82,161.92a7.79,7.79,0,1,1-7.79-7.78A7.79,7.79,0,0,1,617.82,161.92Z"/><path class="cls-12" d="M599.5,146.26h21.06a.61.61,0,0,1,.61.61v18.6a.61.61,0,0,1-.61.61H599.5a.62.62,0,0,1-.62-.62v-18.6A.62.62,0,0,1,599.5,146.26Z"/><path class="cls-6" d="M618.64,155.38a.62.62,0,0,1-.62.62H601.89a.62.62,0,0,1-.62-.62h0a.62.62,0,0,1,.62-.62H618a.62.62,0,0,1,.62.62Z"/><path class="cls-6" d="M618.64,158.45a.62.62,0,0,1-.62.62H601.89a.62.62,0,0,1-.62-.62h0a.61.61,0,0,1,.62-.61H618a.61.61,0,0,1,.62.61Z"/><path class="cls-6" d="M618.64,161.53a.62.62,0,0,1-.62.62H601.89a.62.62,0,0,1-.62-.62h0a.62.62,0,0,1,.62-.62H618a.62.62,0,0,1,.62.62Z"/><path class="cls-42" d="M641.39,112a31.36,31.36,0,1,0-46.32,27.56v4.2a8.61,8.61,0,0,0,8.61,8.61h12.71a8.6,8.6,0,0,0,8.6-8.61v-4.2A31.34,31.34,0,0,0,641.39,112Z"/><path class="cls-43" d="M588,130.07s-16.14-27.87,9.35-43.86C597.33,86.21,578.63,108.92,588,130.07Z"/><path class="cls-6" d="M621.64,116.38c-1.4-1.56-2.7-1.5-3.56-1.18-2.22.85-3.83,4.53-4.43,7.37a9.7,9.7,0,0,1-1.26-.41l-1.59-.92a6.15,6.15,0,0,0,1.69-4.73c0-3-1.3-5.23-3-5.23s-3,2.25-3,5.23c0,2.21.71,4,1.78,4.81l-1.78.83a10.17,10.17,0,0,1-1.29.42c-.6-2.84-2.2-6.52-4.43-7.37-.85-.32-2.16-.38-3.56,1.18a3.74,3.74,0,0,0-.06,4.82,7.68,7.68,0,0,0,7,2.89c0,.22,0,.43,0,.62v27.7h1.33v-27.7c0-.25,0-.53-.05-.83a9.93,9.93,0,0,0,1.58-.5l0,0,2.66-1.24,2.11,1.22.08,0a10,10,0,0,0,1.59.5,6.35,6.35,0,0,0-.06.83v27.7h1.34v-27.7c0-.19,0-.4,0-.62a7.68,7.68,0,0,0,7-2.89A3.73,3.73,0,0,0,621.64,116.38Zm-23.43,4.06a2.45,2.45,0,0,1,0-3.18,2.24,2.24,0,0,1,1.6-.92,1.41,1.41,0,0,1,.49.1c1.62.62,3,3.84,3.59,6.33A6.26,6.26,0,0,1,598.21,120.44Zm11.26,0c-.79,0-1.68-1.67-1.68-3.9s.89-3.9,1.68-3.9,1.69,1.67,1.69,3.9S610.27,120.41,609.47,120.41Zm11.14,0a6.29,6.29,0,0,1-5.64,2.33c.56-2.49,2-5.71,3.59-6.33.25-.09,1-.38,2.09.82A2.44,2.44,0,0,1,620.61,120.44Z"/><g class="cls-44"><path class="cls-45" d="M591.38,135a31.32,31.32,0,0,1-7.59-5.78,31.35,31.35,0,0,0,7.59,8Z"/><path class="cls-45" d="M632.57,90.25A31.35,31.35,0,0,1,621.3,135v4.2a8.6,8.6,0,0,1-8.6,8.61H600a8.61,8.61,0,0,1-4.47-1.25,8.61,8.61,0,0,0,8.16,5.86h12.71a8.6,8.6,0,0,0,8.6-8.61v-4.2a31.34,31.34,0,0,0,7.58-49.35Z"/></g><polyline class="cls-6" points="156.68 408.84 152.5 403.19 142.66 403.53 146.14 412.35 153.85 414.49"/><path class="cls-46" d="M183,428.79l-6.44-17.29-4.24,1.19.17,5.42S156,432.52,155,435.4s6.78,19.16,6.78,19.16l18,17.8"/><rect class="cls-31" x="176.27" y="396.84" width="7.12" height="60.53" transform="translate(-277.91 354.75) rotate(-58.19)"/><path class="cls-47" d="M191.46,462.53l-5.59-15.09,4.74-5.93-2.71-11.87-17.12-2.2s-.85,5.42,4.41,6.78l2.37.51s-6.61,5.25-4.07,11,12,24.07,12,24.07"/><path class="cls-48" d="M176.51,411.41l-17.17,4.08s4.15,4.34,6.81,4.23a42.18,42.18,0,0,0,7.45-1.53"/><path class="cls-8" d="M288.78,503.22s-70.87,40.35-77.31,40-41.82-77.76-41.82-77.76l18.76-11.08s27.8,49.17,33.91,51.71,65.61-61.54,65.61-61.54Z"/><polyline class="cls-49" points="331.47 408.02 332.44 440.04 300.42 468.48 299.84 448.12 302.75 404.81"/><path class="cls-50" d="M321.35,406.19s7.13,22.26-20.68,31.35l-.39-15.61"/><path class="cls-31" d="M287.76,394.92c-22.93-7.75-46.35-45.05-26.24-54s75.41,19,75.41,19l-4.75,55.45-14.92-9.69"/><path class="cls-51" d="M277.76,404.3c-.58-8.26-1.62-15.36-1.62-15.36l-.87-6.66s24.1-6.35,30.84-9.9,8.16,4.26,8.16,4.26l1.88,9.73a16,16,0,0,1,1.74-2.42c4.7-.91,9.47,3.31,10.65,9.42s-1.67,11.81-6.37,12.72a7.64,7.64,0,0,1-.82.1c2.14,18.49-21.05,28.69-26.3,29.09C289.05,435.74,279.12,423.44,277.76,404.3Z"/><path class="cls-31" d="M295.19,396.15a1.87,1.87,0,1,0,1.49-2.19A1.87,1.87,0,0,0,295.19,396.15Z"/><path class="cls-31" d="M280.75,398.1a1.87,1.87,0,1,0,1.48-2.19A1.87,1.87,0,0,0,280.75,398.1Z"/><path class="cls-6" d="M286.36,415.16l20.07-3.88s-.69,12.71-12.35,14.37"/><path class="cls-31" d="M271,398.33c1,5.38,5.89,9,10.81,8s8.08-6.1,7-11.48a10.39,10.39,0,0,0-1.1-3.07l3.71-.44a10.95,10.95,0,1,0,.27-1.06l-4.57.54a9.05,9.05,0,0,0-9.12-4C273.14,387.79,270,392.94,271,398.33Zm21.45-3A9.85,9.85,0,1,1,304,403.16,9.87,9.87,0,0,1,292.47,395.35ZM272,398.13c-.94-4.83,1.86-9.45,6.23-10.29s8.69,2.4,9.62,7.23-1.86,9.44-6.23,10.29S273,403,272,398.13Z"/><path class="cls-52" d="M300.48,439.47c-6.61.69-23.31,12.12-28.66,19.33-26.59,35.82-6.78,136-25.09,166.49-21.26,35.44,132.93,13.58,131.56,8.14S354.13,478.35,356.86,462s-22.53-20.63-22.53-20.63-22.87,8-30.36,8S300.48,439.47,300.48,439.47Z"/><path class="cls-53" d="M207.44,578.84a22.36,22.36,0,0,1-10.14-2.17c-4.66-2.45-11.22-13.95-11.22-13.95s-3.26-.18-2.54,5.62,7.24,10.79,3.14,14.34c-4.7,4.08-5.18,2.1-10.81,4.54-5.43,2.36-23.46-.06-23.46-.06s-1.36,8.79,7,11.14c5.43,5.25,9.32,12.4,14.39,13.85a12.78,12.78,0,0,0,8.69-.37L193.68,606l14.12-4.34"/><path class="cls-8" d="M323.59,462.47s-34,66.7-35.39,72.14-73.87,38.72-80.68,40.08-2.51,29.67,1.57,31,79.13-23.82,88.64-27.56c8-3.15,71.58-76.06,65.66-105.31C355.45,433.61,327.67,454.3,323.59,462.47Z"/><polygon class="cls-9" points="692.28 656.48 15.48 656.48 29.04 630.71 702.4 630.71 692.28 656.48"/><polygon class="cls-54" points="82.1 595 143.84 595 132.7 630.59 71.05 631.1 82.1 595"/><polygon class="cls-11" points="76.11 594.75 137.85 594.75 126.72 630.34 65.06 630.85 76.11 594.75"/></g></g></g></svg>