<svg xmlns="http://www.w3.org/2000/svg" xmlns:xlink="http://www.w3.org/1999/xlink" viewBox="0 0 1513.96 1131.87"><defs><style>.cls-1{isolation:isolate;}.cls-2{fill:#069782;}.cls-3{fill:#fcb424;}.cls-4{fill:#ffda7a;}.cls-5{fill:#5b3e3f;}.cls-26,.cls-27,.cls-6{fill:#fff;}.cls-7{fill:#753a96;}.cls-8{fill:url(#linear-gradient);}.cls-9{fill:url(#linear-gradient-2);}.cls-10{fill:#0b2e4e;}.cls-11{fill:#b9529f;}.cls-12{fill:url(#linear-gradient-3);}.cls-13{fill:#514c3c;}.cls-14{fill:url(#linear-gradient-4);}.cls-15{fill:#730c2d;}.cls-16{fill:url(#linear-gradient-5);}.cls-17{fill:url(#linear-gradient-6);}.cls-18{fill:url(#linear-gradient-7);}.cls-19{fill:url(#linear-gradient-8);}.cls-20{fill:#44164c;}.cls-21{fill:#424242;}.cls-22{fill:#ec5c5d;}.cls-23,.cls-34{fill:#2768a8;}.cls-23,.cls-35{mix-blend-mode:multiply;}.cls-24{fill:#f69322;}.cls-25{fill:#fde9e9;}.cls-26{stroke:#231f20;}.cls-26,.cls-27{stroke-miterlimit:10;}.cls-27{stroke:#86c7eb;stroke-width:3px;}.cls-28{fill:#f38daf;}.cls-29{fill:#40a064;}.cls-30{fill:url(#linear-gradient-9);}.cls-31{fill:#e15ca2;}.cls-32{fill:url(#linear-gradient-10);}.cls-33{fill:url(#linear-gradient-11);}.cls-35{fill:url(#linear-gradient-12);}.cls-36{fill:url(#linear-gradient-13);}.cls-37{fill:url(#linear-gradient-14);}.cls-38{fill:url(#linear-gradient-15);}.cls-39{fill:#ffd27b;}.cls-40{fill:#f496b7;}.cls-41{fill:#51323e;}</style><linearGradient id="linear-gradient" x1="571.43" y1="78.34" x2="608.88" y2="78.34" gradientUnits="userSpaceOnUse"><stop offset="0.1" stop-color="#ffda8b"/><stop offset="0.25" stop-color="#fed589"/><stop offset="0.41" stop-color="#fdc884"/><stop offset="0.59" stop-color="#fab27c"/><stop offset="0.77" stop-color="#f79371"/><stop offset="0.95" stop-color="#f26c62"/><stop offset="1" stop-color="#f15f5d"/></linearGradient><linearGradient id="linear-gradient-2" x1="571.34" y1="80.88" x2="571.34" y2="28.64" xlink:href="#linear-gradient"/><linearGradient id="linear-gradient-3" x1="13243.77" y1="163.31" x2="13333.92" y2="163.31" gradientTransform="matrix(-1, 0, 0, 1, 13874.65, 0)" gradientUnits="userSpaceOnUse"><stop offset="0" stop-color="#f79533"/><stop offset="1" stop-color="#f04f36"/></linearGradient><linearGradient id="linear-gradient-4" x1="630.9" y1="120" x2="488.71" y2="262.18" xlink:href="#linear-gradient"/><linearGradient id="linear-gradient-5" x1="1399.69" y1="608.83" x2="1399.69" y2="552.02" gradientTransform="translate(-289.23)" xlink:href="#linear-gradient"/><linearGradient id="linear-gradient-6" x1="1090.54" y1="549.59" x2="1142.64" y2="549.59" xlink:href="#linear-gradient"/><linearGradient id="linear-gradient-7" x1="1454.83" y1="575.09" x2="1484.73" y2="575.09" gradientTransform="translate(-289.23)" gradientUnits="userSpaceOnUse"><stop offset="0" stop-color="#ffd27b"/><stop offset="0.23" stop-color="#fece79"/><stop offset="0.47" stop-color="#fdc174"/><stop offset="0.71" stop-color="#faac6c"/><stop offset="0.95" stop-color="#f79060"/><stop offset="1" stop-color="#f6895d"/></linearGradient><linearGradient id="linear-gradient-8" x1="1212.79" y1="569.53" x2="1242.69" y2="569.53" xlink:href="#linear-gradient-7"/><linearGradient id="linear-gradient-9" x1="293.83" y1="923.37" x2="330.95" y2="923.37" gradientTransform="matrix(1, 0, 0, 1, 0, 0)" xlink:href="#linear-gradient-7"/><linearGradient id="linear-gradient-10" x1="323.56" y1="900.68" x2="465.06" y2="900.68" gradientTransform="matrix(1, 0, 0, 1, 0, 0)" xlink:href="#linear-gradient-3"/><linearGradient id="linear-gradient-11" x1="1970.81" y1="-2404.37" x2="2101.91" y2="-2404.37" gradientTransform="matrix(0.81, -0.59, 0.59, 0.81, 48.65, 4162.85)" xlink:href="#linear-gradient-7"/><linearGradient id="linear-gradient-12" x1="241.59" y1="1003.16" x2="435.18" y2="1003.16" gradientUnits="userSpaceOnUse"><stop offset="0" stop-color="#fff"/><stop offset="0.13" stop-color="#fbfbfb"/><stop offset="0.26" stop-color="#efeeee"/><stop offset="0.4" stop-color="#dad9da"/><stop offset="0.54" stop-color="#bdbcbc"/><stop offset="0.67" stop-color="#989797"/><stop offset="0.81" stop-color="#6b6869"/><stop offset="0.95" stop-color="#373334"/><stop offset="1" stop-color="#231f20"/></linearGradient><linearGradient id="linear-gradient-13" x1="123.96" y1="1039.79" x2="270.89" y2="1039.79" gradientTransform="matrix(1, 0, 0, 1, 0, 0)" xlink:href="#linear-gradient-7"/><linearGradient id="linear-gradient-14" x1="282.26" y1="931.97" x2="346.89" y2="931.97" gradientTransform="matrix(1, 0, 0, 1, 0, 0)" xlink:href="#linear-gradient-7"/><linearGradient id="linear-gradient-15" x1="9581.05" y1="-344.41" x2="9581.05" y2="-402.15" gradientTransform="matrix(-0.98, 0.2, 0.2, 0.98, 9894.51, -736.08)" xlink:href="#linear-gradient-7"/></defs><title>img-mktdigital_1</title><g class="cls-1"><g id="Layer_2" data-name="Layer 2"><g id="Layer_1-2" data-name="Layer 1"><path class="cls-2" d="M1285.34,1108.82H92.74S-55.75,817.29,151.66,717.16s264-73.62,259.26-232.63,99-256.2,183.84-206.14,157.91,176.69,289.9,100.12,320.54-64.78,315.83,179.64S1264.13,793.73,1318.33,832,1440.89,1002.81,1285.34,1108.82Z"/><path class="cls-3" d="M462.61,635.92c-30,31.64-42.36,36.48-42.1-2.25S372.4,510,317.06,540.54s-16,85.17-.28,108.41,39.26,54.8,15.56,48.93-50.7-14.82-48.22,9.48,59.53,39.35,87.64,63.86,30,44.44,3.67,39.82-68.15,24.07-41.3,46c23.59,19.3,164.77,106.77,198.64,127.68,0-5.72.87-13.42-.78-18.35-1.14-3.38-2.44-6.92-4-10.62s-3-7.63-4.55-11.73c-1.79-4.84-3.9-9.86-6.08-15.08-2.49-.7-6.19-1.84-10.59-3.46C502.7,924,498,922.16,493,920s-10.26-4.57-15.45-7.16-10.26-5.32-15-8-9.08-5.34-12.73-7.74a129.72,129.72,0,0,1-11.92-8.52,138.32,138.32,0,0,1,14,4.36c4.13,1.47,8.84,3.34,13.84,5.51S476,903,481.18,905.58s10.27,5.31,15,8,9.07,5.31,12.72,7.73c3,1.93,5.53,3.7,7.48,5.12-1.18-2.82-2.37-5.7-3.53-8.64-3.74-9.32-8.19-18.94-12.39-29.09l-13.58-30.94c-4.72-10.51-9.49-21.18-14.29-31.85q-6-13.06-11.85-26c-2-1.24-4.44-2.79-7.13-4.61-3.84-2.57-8.21-5.7-12.75-9.17s-9.34-7.3-14-11.23-9.21-8-13.4-12-8-7.7-11.13-11a146.78,146.78,0,0,1-10.15-11.65,149.88,149.88,0,0,1,13.16,8.11c3.83,2.55,8.18,5.68,12.73,9.17s9.37,7.25,14,11.22,9.19,8,13.38,12,8,7.7,11.13,11.06c.27.27.53.56.79.83l-38.18-83.83C412,692.69,406,679.32,401.78,670s-6.54-14.75-6.54-14.75,3,5.07,7.95,14,12.07,21.82,20.19,37.41,17.49,33.88,27.19,53.61,19.62,41,29.41,62.31c4.72,10.73,9.44,21.48,14.08,32.06,3.65,8.59,7.17,17,10.56,25.38.28-3.44.67-7.77,1.28-12.85.7-6.25,1.69-13.5,3-21.25.63-3.87,1.18-7.89,2-11.92s1.52-8.15,2.3-12.25,1.69-8.2,2.55-12.22,1.81-7.95,2.69-11.79c1.8-7.62,3.64-14.72,5.37-20.76,3.39-12.11,6.34-20.07,6.34-20.07s-.3,8.47-1.78,21c-.7,6.27-1.7,13.53-2.95,21.28-.64,3.85-1.22,7.87-2,11.91s-1.51,8.15-2.28,12.26-1.7,8.18-2.56,12.2-1.82,8-2.68,11.8c-1.79,7.63-3.64,14.71-5.38,20.78-1.76,6.32-3.42,11.49-4.6,15,.4.95.81,1.93,1.18,2.89,4,10.24,8.05,20.07,11.43,29.61s6.82,18.41,9.39,26.86,5.33,16,7,23c1,4,3.72,8.88,6,13.22,3.64-50.33,18.06-265.8.75-304C522,631.39,492.61,604.31,462.61,635.92Z"/><polyline class="cls-4" points="486.03 382.21 499.4 419.69 485.16 424.62 460.54 369.2"/><path class="cls-5" d="M456.82,440.28c15.65-8.65,18.78-17.77,18.78-17.77l28-10.41,12,22.9-76.87,30.08C438.09,459.41,440,449.62,456.82,440.28Z"/><path class="cls-6" d="M438.77,465.08a13.64,13.64,0,0,0,1.47,4.88L518,439.52,515.64,435l5.46,8.35-79.71,31.2Z"/><path class="cls-6" d="M440.24,470a13.64,13.64,0,0,1-1.47-4.88L515.64,435l2.35,4.52Z"/><polyline class="cls-4" points="425.65 406 404.42 439.66 391.75 431.49 420.15 377.92"/><path class="cls-5" d="M361.93,418.88c16.46,6.94,25.59,3.8,25.59,3.8L413,438.29,402.4,461.88,331.28,420C335.31,415.94,344.22,411.42,361.93,418.88Z"/><path class="cls-6" d="M331.28,420a13.2,13.2,0,0,0-2.92,4.17l71.94,42.37,2.1-4.65-3.22,9.45-73.72-43.44Z"/><path class="cls-6" d="M328.36,424.16a13.2,13.2,0,0,1,2.92-4.17l71.12,41.89-2.1,4.65Z"/><polygon class="cls-7" points="497.58 297.78 460.12 356.17 414.15 432.85 395.9 415.81 434.07 302.77 460.12 266.12 497.58 297.78"/><polygon class="cls-8" points="608.88 90.86 579.67 95.42 571.43 61.27 595.59 61.27 608.88 90.86"/><path class="cls-9" d="M599.45,31.47H580.27l-.33-2.83-36.7,2.65,3,41.16s10.86,16.45,29.22,3.4l9-8.94-.67-5.64h15.67Z"/><path class="cls-10" d="M664.47,103.76c-1.16-22.87-15.85-32.65-41.33-40.71-11-3.51-16.87-8.63-19.94-13.32l-1.45-19.94L579.41,27l1.34,12.07c.29-.14.62-.15.92-.26h0a8.52,8.52,0,1,1,0,16.12v5.42s-.12,35.84,23.59,46.28,19.89,36,19.89,36S666,134.47,664.47,103.76Z"/><path class="cls-11" d="M630.78,245.42S619.83,305.06,587,305.06s-112-10-112-10l19.49,111h-28L422.67,245.42Z"/><path class="cls-12" d="M630.78,244.15s3.12-163-25.2-162.94c-15,0-21.18-1.36-34.17,14.21C569,98.27,543.23,133,543.24,145.23s18.91,24.24,18.4,29c-4.11,39.25-20.91,71.15-20.91,71.15Z"/><rect class="cls-13" x="402.6" y="231.43" width="124.13" height="11.57"/><polygon class="cls-13" points="411.1 230.07 380.03 145.23 369.18 149.21 400.24 234.04 411.1 230.07"/><path class="cls-14" d="M608.88,98.77c-7.66-13.77-28.79-3.74-32.1,6s-.43,67.25-.43,67.25v24.73L518.21,208.3l-26.16,1.83s-24.34,12.17-27.38,13.93-3.06,11-3.06,11l41.39-7.9,11-3.12,94.93-10.89S616.54,112.54,608.88,98.77Z"/><polygon class="cls-15" points="1092.06 549.6 1075.86 510.59 1129.26 490.51 1142.64 475.13 1133.53 519.13 1092.06 549.6"/><polygon class="cls-16" points="1099.78 552.02 1096.79 598.15 1124.13 608.83 1120.71 560.14 1099.78 552.02"/><polygon class="cls-3" points="1020.33 766.03 1049.66 916.11 1049.66 1085.83 1082.69 1085.83 1082.69 929.77 1092.59 831.81 1137.37 916.11 1171.76 1085.83 1203.44 1085.83 1171.55 909.27 1139.94 788.24 1020.33 766.03"/><path class="cls-17" d="M1133.53,519.13s20.5,57.67,0,60.66-29-19.65-29-19.65-6.41,2.56-11.1-5.56-2.14-12.32-2.14-12.32l4.7-2.2,2.56-.85-4.7-15Z"/><path class="cls-18" d="M1195.5,575.09a15,15,0,1,1-15-15A14.95,14.95,0,0,1,1195.5,575.09Z"/><path class="cls-19" d="M953.46,569.54a15,15,0,1,1-15-14.95A14.94,14.94,0,0,1,953.46,569.54Z"/><polygon class="cls-6" points="1143.35 608.83 1087.02 592.46 1059.55 773.31 1126.69 785.78 1144.94 610.17 1143.35 608.83"/><path class="cls-20" d="M1069.88,587.48l-92.27,36.73-23.06-54.67L930.63,583.2s15,75.47,32.46,88,67.49-26.48,67.49-26.48L999.1,788.47l60.45-15.16L1087,592.46Z"/><path class="cls-20" d="M1248.08,674.62c-2.29-16-50.9-97.4-50.9-97.4l-23.07,10.26,23.07,66.63-52.24-43.94-18.25,175.61,29.26,23.1,13-125.72C1224.16,723,1250.36,690.56,1248.08,674.62Z"/><path class="cls-21" d="M1082.69,1085.83s23,23.35,15.6,25.06-44.43,0-44.43,0v-25.06"/><path class="cls-21" d="M1201.16,1083.27s23,23.35,15.59,25.06-44.43,0-44.43,0v-25.06"/><path class="cls-6" d="M1137.35,559c1.25,4.34.39,8.4-1.9,9.06s-5.17-2.33-6.42-6.67-.4-8.4,1.9-9.06S1136.1,554.67,1137.35,559Z"/><path class="cls-22" d="M1143.19,535.71s85.75-41.33,120.83-93.91c0,0,48.19,36.91,41.93,107,0,0-80.07-10.84-132.4,12.68C1173.55,561.52,1145.68,579.52,1143.19,535.71Z"/><path class="cls-23" d="M1262.39,450.56s-6.27,56.34,38.81,89.53C1301.2,540.09,1305,483.74,1262.39,450.56Z"/><polygon class="cls-24" points="1321.27 389.66 1330.37 403.08 1307.71 433.85 1360.55 396.3 1343.46 383.92 1394.09 343.67 1352.13 327.5 1321.27 389.66"/><polygon class="cls-24" points="1426.12 385.83 1426.38 402.04 1355.36 445.04 1455.34 412.92 1447.83 393.19 1512.24 387.29 1513.96 316.76 1426.12 385.83"/><polygon class="cls-24" points="1377.28 487.19 1374.17 497.3 1349.27 498.33 1389.94 509.89 1389.27 496.14 1430.41 505.47 1421.51 477.52 1377.28 487.19"/><path class="cls-22" d="M956.92,1117.33a14.3,14.3,0,0,1-14,14.54H513.3a14.3,14.3,0,0,1-14-14.54V320.1a14.31,14.31,0,0,1,14-14.55H942.88a14.31,14.31,0,0,1,14,14.55Z"/><rect class="cls-25" x="529.26" y="334.27" width="397.66" height="661.88"/><circle class="cls-26" cx="728.09" cy="1061.67" r="25" transform="translate(-472.47 1526.36) rotate(-76.72)"/><path class="cls-10" d="M534.25,10.08S541,45.35,566.66,41.85c0,0,2,20.07,13.26,19.68l2.34-25.22,19.49-6.52S592.56-21,534.25,10.08Z"/><path class="cls-27" d="M606.58,537a21.38,21.38,0,1,0-35.43,16.11,14.07,14.07,0,0,1,13.35-13.2,6.2,6.2,0,1,1,1.41,0,14.07,14.07,0,0,1,13.35,13.2A21.32,21.32,0,0,0,606.58,537Z"/><path class="cls-27" d="M585.91,539.89a6.2,6.2,0,1,0-1.41,0c.24,0,.47,0,.71,0S585.67,539.87,585.91,539.89Z"/><path class="cls-27" d="M585.91,539.89c-.23,0-.47,0-.7,0s-.48,0-.71,0a14.07,14.07,0,0,0-13.35,13.2,21.38,21.38,0,0,0,28.11,0A14.07,14.07,0,0,0,585.91,539.89Z"/><path class="cls-27" d="M585.91,539.89c-.24,0-.47,0-.7,0s-.47,0-.71,0c.23,0,.47,0,.71,0S585.68,539.91,585.91,539.89Z"/><path class="cls-2" d="M881,379.75H572.34a5.83,5.83,0,0,0-5.83,5.83v79.3a5.78,5.78,0,0,0,.39,2v29.83l26-26H881a5.83,5.83,0,0,0,5.83-5.83v-79.3A5.83,5.83,0,0,0,881,379.75Z"/><path class="cls-6" d="M870.49,403.07a1.55,1.55,0,0,1-1.55,1.56H596.06a1.56,1.56,0,0,1-1.56-1.56h0a1.55,1.55,0,0,1,1.56-1.55H868.94a1.54,1.54,0,0,1,1.55,1.55Z"/><path class="cls-6" d="M870.49,423.48a1.54,1.54,0,0,1-1.55,1.55H596.06a1.55,1.55,0,0,1-1.56-1.55h0a1.56,1.56,0,0,1,1.56-1.56H868.94a1.55,1.55,0,0,1,1.55,1.56Z"/><path class="cls-6" d="M870.49,443.89a1.54,1.54,0,0,1-1.55,1.55H596.06a1.55,1.55,0,0,1-1.56-1.55h0a1.56,1.56,0,0,1,1.56-1.56H868.94a1.55,1.55,0,0,1,1.55,1.56Z"/><path class="cls-27" d="M606.58,952.14a21.38,21.38,0,1,0-35.43,16.1A14.07,14.07,0,0,1,584.5,955a6.2,6.2,0,1,1,1.41,0,14.07,14.07,0,0,1,13.35,13.2A21.31,21.31,0,0,0,606.58,952.14Z"/><path class="cls-27" d="M585.91,955a6.2,6.2,0,1,0-1.41,0c.24,0,.47,0,.71,0S585.67,955,585.91,955Z"/><path class="cls-27" d="M585.91,955c-.23,0-.47,0-.7,0s-.48,0-.71,0a14.07,14.07,0,0,0-13.35,13.2,21.38,21.38,0,0,0,28.11,0A14.07,14.07,0,0,0,585.91,955Z"/><path class="cls-27" d="M585.91,955c-.24,0-.47,0-.7,0s-.47,0-.71,0c.23,0,.47,0,.71,0S585.68,955.06,585.91,955Z"/><path class="cls-3" d="M881,794.9H572.34a5.83,5.83,0,0,0-5.83,5.83V880a5.74,5.74,0,0,0,.39,2V911.9l26-26H881a5.83,5.83,0,0,0,5.83-5.83v-79.3A5.83,5.83,0,0,0,881,794.9Z"/><path class="cls-6" d="M870.49,818.22a1.55,1.55,0,0,1-1.55,1.56H596.06a1.56,1.56,0,0,1-1.56-1.56h0a1.55,1.55,0,0,1,1.56-1.55H868.94a1.54,1.54,0,0,1,1.55,1.55Z"/><path class="cls-6" d="M870.49,838.63a1.55,1.55,0,0,1-1.55,1.56H596.06a1.56,1.56,0,0,1-1.56-1.56h0a1.55,1.55,0,0,1,1.56-1.55H868.94a1.54,1.54,0,0,1,1.55,1.55Z"/><path class="cls-6" d="M870.49,859a1.54,1.54,0,0,1-1.55,1.55H596.06A1.55,1.55,0,0,1,594.5,859h0a1.56,1.56,0,0,1,1.56-1.56H868.94a1.55,1.55,0,0,1,1.55,1.56Z"/><path class="cls-27" d="M844.06,758.55a21.38,21.38,0,1,1,35.43,16.11,14.07,14.07,0,0,0-13.35-13.2,6.2,6.2,0,1,0-1.4,0,14.08,14.08,0,0,0-13.36,13.2A21.35,21.35,0,0,1,844.06,758.55Z"/><path class="cls-27" d="M864.74,761.46a6.2,6.2,0,1,1,1.4,0c-.23,0-.46,0-.7,0S865,761.44,864.74,761.46Z"/><path class="cls-27" d="M864.74,761.46c.23,0,.46,0,.7,0s.47,0,.7,0a14.07,14.07,0,0,1,13.35,13.2,21.38,21.38,0,0,1-28.11,0A14.08,14.08,0,0,1,864.74,761.46Z"/><path class="cls-27" d="M864.74,761.46c.23,0,.46,0,.7,0s.47,0,.7,0c-.23,0-.46,0-.7,0S865,761.48,864.74,761.46Z"/><path class="cls-28" d="M569.66,578H878.3a5.83,5.83,0,0,1,5.83,5.83V686.45a5.78,5.78,0,0,1-.39,2v29.83l-26-26h-288a5.83,5.83,0,0,1-5.83-5.83V583.83A5.83,5.83,0,0,1,569.66,578Z"/><path class="cls-6" d="M580.15,624.64a1.56,1.56,0,0,0,1.56,1.56H854.59a1.55,1.55,0,0,0,1.55-1.56h0a1.54,1.54,0,0,0-1.55-1.55H581.71a1.55,1.55,0,0,0-1.56,1.55Z"/><path class="cls-6" d="M580.15,602.48a1.56,1.56,0,0,0,1.56,1.56H854.59a1.55,1.55,0,0,0,1.55-1.56h0a1.54,1.54,0,0,0-1.55-1.55H581.71a1.55,1.55,0,0,0-1.56,1.55Z"/><path class="cls-6" d="M580.15,645.05a1.55,1.55,0,0,0,1.56,1.55H854.59a1.54,1.54,0,0,0,1.55-1.55h0a1.55,1.55,0,0,0-1.55-1.56H581.71a1.56,1.56,0,0,0-1.56,1.56Z"/><path class="cls-6" d="M580.15,665.46a1.55,1.55,0,0,0,1.56,1.55H854.59a1.54,1.54,0,0,0,1.55-1.55h0a1.55,1.55,0,0,0-1.55-1.56H581.71a1.56,1.56,0,0,0-1.56,1.56Z"/><rect class="cls-29" x="1057.67" y="278.94" width="24.94" height="24.94" transform="translate(107.36 842.02) rotate(-45)"/><rect class="cls-29" x="1023.89" y="217.16" width="92.52" height="76.97" rx="5.83" ry="5.83"/><path class="cls-6" d="M1090.31,249.05a11.77,11.77,0,0,0-20.16-8.27h0a11.77,11.77,0,1,0-15.86,17.35L1070.15,274l16-16A11.72,11.72,0,0,0,1090.31,249.05Z"/><rect class="cls-3" x="1279.39" y="835.22" width="18.16" height="18.16" transform="translate(-219.61 1158.46) rotate(-45)"/><rect class="cls-3" x="1254.78" y="790.23" width="67.37" height="56.04" rx="4.25" ry="4.25"/><path class="cls-6" d="M1303.15,813.45a8.57,8.57,0,0,0-14.68-6h0a8.57,8.57,0,1,0-11.55,12.64l11.55,11.55L1300.09,820A8.55,8.55,0,0,0,1303.15,813.45Z"/><rect class="cls-10" x="60.38" y="563.12" width="44.56" height="44.56" transform="translate(-389.72 229.9) rotate(-45)"/><rect class="cls-10" y="452.73" width="165.31" height="137.53" rx="10.42" ry="10.42"/><path class="cls-6" d="M118.69,509.7a21,21,0,0,0-36-14.76h0a21,21,0,1,0-28.35,31l28.36,28.36,28.52-28.53A21,21,0,0,0,118.69,509.7Z"/><polyline class="cls-30" points="328.03 919.1 293.83 909.18 307.24 935.42 330.95 937.56"/><polyline class="cls-31" points="407.53 918.51 383.81 1021.91 465.83 1012.97 468.94 950.78"/><polyline class="cls-32" points="429.2 852.92 409.08 871.87 386.15 920.07 323.56 913.85 325.12 940.67 397.81 948.44 458.45 892.08 465.06 865.65"/><polyline class="cls-33" points="294.44 943.41 242.9 1081.48 270.7 1093.4 319.58 964.06"/><polyline class="cls-31" points="431.53 848.93 411.42 867.88 388.48 916.08 325.9 909.86 327.45 936.68 400.14 944.46 460.78 888.09 467.39 861.66"/><polyline class="cls-34" points="435.9 1026.58 296.74 929.4 242.32 1056.12 281.97 1071.67 308.4 1007.14 404.03 1078.66"/><polyline class="cls-35" points="435.18 1025.7 296.01 928.52 241.59 1055.24 281.24 1070.79 307.68 1006.26 403.3 1077.79"/><polyline class="cls-36" points="262.73 986.15 123.96 1081.19 155.25 1093.44 270.89 1017.64"/><rect class="cls-6" x="289.43" y="876.75" width="8.75" height="58.8" transform="translate(-458.51 321.81) rotate(-34.2)"/><polyline class="cls-37" points="346.89 933.28 314.33 925.12 304.71 911.23 299.46 918.71 288.77 907.14 282.26 910.15 291.11 933.38 305.1 945.34 342.22 956.8"/><path class="cls-15" d="M401.84,804.1a28.45,28.45,0,1,0,22.06-33.64A28.46,28.46,0,0,0,401.84,804.1Z"/><polygon class="cls-38" points="443.32 820.62 455.85 865.9 430.87 882.19 424.18 833.03 443.32 820.62"/><path class="cls-39" d="M402.93,794.88s-8.45,61.62,12.57,60.35,24.83-25.56,24.83-25.56,6.91,1.22,9.9-7.83-.43-12.7-.43-12.7l-5.13-1.22-2.73-.32,1.58-15.85Z"/><polygon class="cls-6" points="424.82 864.72 453.81 852.34 481.73 1036.14 403.54 1039.79 424.82 864.72"/><path class="cls-6" d="M403.93,840.85l20.1-3.76S415.39,856.46,403.93,840.85Z"/><path class="cls-34" d="M496.93,988.87s10.5,68.8-12.83,92.13-52.86,17.88-103.39-4.67-110.79-47.81-110.79-47.81l-87.07,50.34-30.32-34.79,109.62-69.19,180.75,49.36Z"/><path class="cls-40" d="M500.31,1032,489.89,908.66a5.64,5.64,0,0,0,.89-3.35c.08-40-40.83-54.83-40.83-54.83L430.66,867.2l-.5,25.61L405,936l-77.94-7.38,2.33,30.32s73.86,11.47,83.19,7.38c5.6-2.44,11.09-7,16.39-12.62l-1.81,93.09Z"/><path class="cls-15" d="M437.36,771.28s-44.92-13.69-63.26-20.4c-35.86-13.12-42.86,32.94-21.87,44s72,4.66,90.09-2.63"/><polygon class="cls-41" points="157.09 1091.01 157.97 1108.21 64.68 1110.25 65.55 1102.09 123.18 1077.69 138.14 1086.05 157.09 1091.01"/><rect class="cls-6" x="64.87" y="1105.87" width="93.68" height="7.19"/><polygon class="cls-41" points="276.43 1088.29 277.31 1105.49 184.01 1107.53 184.89 1099.36 242.51 1074.97 257.48 1083.33 276.43 1088.29"/><rect class="cls-6" x="184.21" y="1103.15" width="93.68" height="7.19"/><path class="cls-3" d="M270.83,270A39.07,39.07,0,1,1,231.77,231,39.07,39.07,0,0,1,270.83,270Z"/><path class="cls-6" d="M207.39,271.93a24.42,24.42,0,0,0,48.75,0Z"/><path class="cls-6" d="M225.57,255.89a4.29,4.29,0,1,1-4.28-4.29A4.29,4.29,0,0,1,225.57,255.89Z"/><path class="cls-6" d="M246.54,255.89a4.29,4.29,0,1,1-4.29-4.29A4.3,4.3,0,0,1,246.54,255.89Z"/><path class="cls-22" d="M1362.69,974.29a51.9,51.9,0,1,1-51.89-51.89A51.89,51.89,0,0,1,1362.69,974.29Z"/><path class="cls-10" d="M1278.42,976.82a32.44,32.44,0,0,0,64.75,0Z"/><path class="cls-10" d="M1302.57,955.51a5.7,5.7,0,1,1-5.7-5.69A5.7,5.7,0,0,1,1302.57,955.51Z"/><path class="cls-10" d="M1330.41,955.51a5.7,5.7,0,1,1-5.69-5.69A5.7,5.7,0,0,1,1330.41,955.51Z"/></g></g></g></svg>