<svg xmlns="http://www.w3.org/2000/svg" viewBox="0 0 191.79 37.73"><defs><style>.cls-1{fill:#1d1d1b;}</style></defs><title>logo_1</title><g id="Layer_2" data-name="Layer 2"><g id="Layer_1-2" data-name="Layer 1"><path class="cls-1" d="M28.73,29.35l-.24.43A15.45,15.45,0,0,1,25.09,34a16.12,16.12,0,0,1-4.64,2.76,14.55,14.55,0,0,1-5.34,1,14.89,14.89,0,0,1-5.89-1.18,15.29,15.29,0,0,1-8-8,15.1,15.1,0,0,1,0-11.75,15.18,15.18,0,0,1,8-8.06,14.93,14.93,0,0,1,11.25-.15,16,16,0,0,1,4.64,2.78,15.44,15.44,0,0,1,3.38,4.21l.24.44-4.59,1.82L24,17.48a11.41,11.41,0,0,0-2.32-2.78,10.8,10.8,0,0,0-3-1.83,10,10,0,0,0-7.53.16,10.65,10.65,0,0,0-3.3,2.24,10.51,10.51,0,0,0-2.24,3.32,10.25,10.25,0,0,0,0,8.08A10.59,10.59,0,0,0,7.77,30a10.7,10.7,0,0,0,3.3,2.24,10.13,10.13,0,0,0,4,.82,9.24,9.24,0,0,0,3.45-.64,10.14,10.14,0,0,0,3-1.79,11.34,11.34,0,0,0,2.28-2.75l.19-.31Z"/><path class="cls-1" d="M137.33,27.54l4.75,1.81-.25.43a15.09,15.09,0,0,1-3.4,4.18,15.94,15.94,0,0,1-4.63,2.76,14.59,14.59,0,0,1-5.34,1,14.81,14.81,0,0,1-5.88-1.18,15.33,15.33,0,0,1-8-8,15.34,15.34,0,0,1,0-11.75,15.21,15.21,0,0,1,8-8.06,14.9,14.9,0,0,1,11.24-.15,15.82,15.82,0,0,1,4.63,2.78,15.07,15.07,0,0,1,3.38,4.21l.25.44-4.59,1.82-.2-.31A11,11,0,0,0,135,14.7a10.34,10.34,0,0,0-3-1.83,10,10,0,0,0-7.54.16,10.56,10.56,0,0,0-5.54,5.56,10.36,10.36,0,0,0,0,8.08,11.13,11.13,0,0,0,2.24,3.3,11,11,0,0,0,3.3,2.24,10.18,10.18,0,0,0,4.05.82,9.29,9.29,0,0,0,3.46-.64,10.22,10.22,0,0,0,2.94-1.79,11.57,11.57,0,0,0,2.28-2.75Z"/><rect class="cls-1" x="81.38" y="0.82" width="4.7" height="36.9"/><path class="cls-1" d="M179.84,16.75a15.16,15.16,0,0,0-8.07-8.06,15.19,15.19,0,0,0-11.74,0A15.12,15.12,0,0,0,152,16.75a15.1,15.1,0,0,0,0,11.75,15.24,15.24,0,0,0,8.05,8,15.19,15.19,0,0,0,11.74,0,15.27,15.27,0,0,0,8.07-8,15.22,15.22,0,0,0,0-11.75Zm-3.52,5.87a10.14,10.14,0,0,1-.82,4.05,10.56,10.56,0,0,1-5.56,5.54,10.39,10.39,0,0,1-8.08,0,10.61,10.61,0,0,1-5.54-5.54,10.25,10.25,0,0,1,0-8.08,10.51,10.51,0,0,1,2.24-3.32,10.77,10.77,0,0,1,3.3-2.24,10.36,10.36,0,0,1,8.08,0,10.74,10.74,0,0,1,3.32,2.24,10.51,10.51,0,0,1,2.24,3.32A10.19,10.19,0,0,1,176.32,22.62Z"/><rect class="cls-1" x="97.73" y="8.19" width="4.7" height="29.53"/><path class="cls-1" d="M102.43,3.18A2.35,2.35,0,1,1,100.08.82,2.35,2.35,0,0,1,102.43,3.18Z"/><path class="cls-1" d="M68.68,19.5a14.62,14.62,0,0,0-4.45-7.92,16.54,16.54,0,0,0-4.1-2.75,14.88,14.88,0,0,0-6.24-1.32A14.64,14.64,0,0,0,48,8.69a15.21,15.21,0,0,0-8,8.06A15.22,15.22,0,0,0,40,28.5a15.33,15.33,0,0,0,8,8,14.86,14.86,0,0,0,16.29-3v3.84H69V24.13A23,23,0,0,0,68.68,19.5ZM64.3,22.62a10,10,0,0,1-.82,4.05,10.47,10.47,0,0,1-5.56,5.54,10.39,10.39,0,0,1-8.08,0,10.61,10.61,0,0,1-5.54-5.54,10.14,10.14,0,0,1-.82-4.05,10,10,0,0,1,.83-4,10.48,10.48,0,0,1,2.23-3.32A10.89,10.89,0,0,1,49.84,13a10.36,10.36,0,0,1,8.08,0,10.41,10.41,0,0,1,5.56,5.56A10,10,0,0,1,64.3,22.62Z"/><rect class="cls-1" x="57.95" y="1.41" width="5.43" height="3.51" transform="translate(35.96 58.66) rotate(-68.99)"/><circle class="cls-1" cx="189.88" cy="35.38" r="1.91"/></g></g></svg>